<svg xmlns="http://www.w3.org/2000/svg" width="199.42" height="78.81" viewBox="0 0 199.42 78.81">
<g transform="translate(18.00,18.00)" fill="#123A36"><path d="M11.154 33.396 0.9239999999999999 1.2760000000000034H7.369999999999999L15.861999999999998 29.106L14.036 28.204H18.788L16.874 29.106L24.727999999999998 1.2760000000000034H30.976L21.45 33.396Z"/><path d="M47.124 34.232Q44.044000000000004 34.232 41.73400000000001 33.176Q39.42400000000001 32.12 37.906000000000006 30.349Q36.388000000000005 28.578000000000003 35.61800000000001 26.378Q34.848000000000006 24.178 34.848000000000006 21.868000000000002V21.032000000000004Q34.848000000000006 18.656000000000002 35.61800000000001 16.445Q36.388000000000005 14.234000000000002 37.895 12.485000000000001Q39.402 10.736 41.657000000000004 9.702000000000002Q43.912000000000006 8.668000000000003 46.86 8.668000000000003Q50.732 8.668000000000003 53.339 10.373000000000003Q55.946 12.078000000000003 57.277 14.817000000000002Q58.608000000000004 17.556 58.608000000000004 20.724000000000004V22.946H37.444V19.206000000000003H54.758L52.888000000000005 21.032000000000004Q52.888000000000005 18.744 52.217000000000006 17.116Q51.54600000000001 15.488000000000003 50.215 14.608000000000002Q48.884 13.728000000000002 46.86 13.728000000000002Q44.814 13.728000000000002 43.406000000000006 14.663000000000002Q41.998000000000005 15.598000000000003 41.283 17.325000000000003Q40.568000000000005 19.052 40.568000000000005 21.472Q40.568000000000005 23.738 41.261 25.476Q41.954 27.214000000000002 43.406000000000006 28.193Q44.858000000000004 29.172 47.124 29.172Q49.346000000000004 29.172 50.754000000000005 28.270000000000003Q52.162000000000006 27.368000000000002 52.55800000000001 26.07H58.19Q57.684 28.512 56.177 30.36Q54.67 32.208 52.371 33.22Q50.072 34.232 47.124 34.232Z"/><path d="M63.888 42.812V37.576H68.376Q69.63 37.576 70.499 37.257000000000005Q71.368 36.938 71.929 36.201Q72.49 35.464 72.82 34.21L79.244 9.504000000000001H85.096L77.99 35.53Q77.286 38.192 76.021 39.798Q74.756 41.403999999999996 72.75399999999999 42.108Q70.752 42.812 67.804 42.812ZM71.324 32.868V28.028000000000002H76.428V32.868ZM69.256 32.868 61.512 9.504000000000001H67.672L75.02 32.868Z"/><path d="M90.508 33.396V1.2760000000000034H96.624V33.396ZM87.51599999999999 5.852000000000004V1.2760000000000034H96.624V5.852000000000004Z"/><path d="M104.49999999999999 33.396V9.504000000000001H109.33999999999999V19.624000000000002H109.20799999999998Q109.20799999999998 14.498000000000001 111.40799999999999 11.847000000000001Q113.60799999999999 9.196000000000002 117.87599999999999 9.196000000000002H118.75599999999999V14.520000000000003H117.08399999999999Q113.98199999999999 14.520000000000003 112.29899999999998 16.181000000000004Q110.61599999999999 17.842000000000002 110.61599999999999 20.966V33.396Z"/><path d="M124.87199999999999 33.396V9.504000000000001H130.98799999999997V33.396ZM121.52799999999998 14.080000000000002V9.504000000000001H130.98799999999997V14.080000000000002ZM127.10499999999998 6.644000000000002Q125.31199999999998 6.644000000000002 124.45399999999998 5.709000000000001Q123.59599999999998 4.774000000000001 123.59599999999998 3.3220000000000027Q123.59599999999998 1.870000000000001 124.45661904761903 0.9350000000000005Q125.31723809523808 0.0 127.09399999999998 0.0Q128.89799999999997 0.0 129.74499999999998 0.9350000000000005Q130.59199999999998 1.870000000000001 130.59199999999998 3.3220000000000027Q130.59199999999998 4.774000000000001 129.74499999999998 5.709000000000001Q128.89799999999997 6.644000000000002 127.10499999999998 6.644000000000002Z"/><path d="M150.36999999999998 34.232Q147.224 34.232 144.80399999999997 33.22Q142.384 32.208 140.712 30.481Q139.04 28.754 138.182 26.554000000000002Q137.32399999999998 24.354 137.32399999999998 21.956000000000003V21.032000000000004Q137.32399999999998 18.590000000000003 138.21499999999997 16.357000000000003Q139.106 14.124000000000002 140.8 12.397000000000002Q142.494 10.670000000000002 144.914 9.669000000000002Q147.33399999999997 8.668000000000003 150.36999999999998 8.668000000000003Q153.428 8.668000000000003 155.837 9.669000000000002Q158.24599999999998 10.670000000000002 159.94 12.397000000000002Q161.634 14.124000000000002 162.52499999999998 16.357000000000003Q163.416 18.590000000000003 163.416 21.032000000000004V21.956000000000003Q163.416 24.354 162.558 26.554000000000002Q161.7 28.754 160.028 30.481Q158.356 32.208 155.93599999999998 33.22Q153.516 34.232 150.36999999999998 34.232ZM150.36999999999998 28.996000000000002Q152.61399999999998 28.996000000000002 154.154 28.017000000000003Q155.694 27.038 156.49699999999999 25.333Q157.29999999999998 23.628 157.29999999999998 21.494Q157.29999999999998 19.294000000000004 156.47499999999997 17.589000000000002Q155.64999999999998 15.884 154.099 14.894000000000002Q152.548 13.904000000000003 150.36999999999998 13.904000000000003Q148.214 13.904000000000003 146.652 14.894000000000002Q145.08999999999997 15.884 144.265 17.589000000000002Q143.44 19.294000000000004 143.44 21.494Q143.44 23.628 144.243 25.333Q145.046 27.038 146.59699999999998 28.017000000000003Q148.148 28.996000000000002 150.36999999999998 28.996000000000002Z"/></g></svg>