<svg xmlns="http://www.w3.org/2000/svg" width="262.69" height="88.81" viewBox="0 0 262.69 88.81">
<g transform="translate(18.00,44.40)">
<g transform="translate(-7.583,-25.567) scale(0.43333)" fill="none" stroke-linecap="round" stroke-linejoin="round">
<path d="M22 28 L50 90" stroke="#2A2723" stroke-width="9"/>
<path d="M50 90 L78 28" stroke="#2A2723" stroke-width="9"/>
<path d="M50 90 L93 37" stroke="#2A2723" stroke-width="6"/>
<path d="M50 90 L105 49" stroke="#2A2723" stroke-width="4.5" stroke-opacity="0.7"/>
</g>
<rect x="52.78" y="-24.00" width="1.0" height="48.0" fill="#2A2723" fill-opacity="0.22"/>
<g transform="translate(67.78,-2.12)">
<g fill="#2A2723"><path d="M8.112 0.0 0.672 -23.36H5.36L11.536 -3.12L10.208 -3.7760000000000002H13.664L12.272 -3.12L17.984 -23.36H22.528L15.6 0.0Z"/><path d="M34.272 0.608Q32.032 0.608 30.351999999999997 -0.16000000000000003Q28.672 -0.928 27.567999999999998 -2.216Q26.464 -3.504 25.904 -5.104Q25.344 -6.704 25.344 -8.384V-8.992Q25.344 -10.72 25.904 -12.328Q26.464 -13.936 27.56 -15.208Q28.656 -16.48 30.296 -17.232Q31.936 -17.984 34.08 -17.984Q36.896 -17.984 38.792 -16.744Q40.688 -15.504 41.656 -13.512Q42.623999999999995 -11.52 42.623999999999995 -9.216000000000001V-7.6000000000000005H27.232V-10.32H39.824L38.464 -8.992Q38.464 -10.656 37.976 -11.84Q37.488 -13.024000000000001 36.519999999999996 -13.664000000000001Q35.552 -14.304 34.08 -14.304Q32.592 -14.304 31.567999999999998 -13.624Q30.544 -12.944 30.024 -11.688Q29.504 -10.432 29.504 -8.672Q29.504 -7.024 30.008000000000003 -5.76Q30.512 -4.496 31.568 -3.7840000000000003Q32.624 -3.072 34.272 -3.072Q35.888 -3.072 36.912 -3.728Q37.936 -4.384 38.224000000000004 -5.328H42.32Q41.952 -3.552 40.855999999999995 -2.208Q39.76 -0.864 38.087999999999994 -0.128Q36.416 0.608 34.272 0.608Z"/><path d="M46.464 6.848V3.04H49.728Q50.64 3.04 51.272000000000006 2.808Q51.904 2.576 52.312 2.04Q52.72 1.504 52.96 0.592L57.632000000000005 -17.376H61.888000000000005L56.72 1.552Q56.208 3.488 55.288 4.656Q54.368 5.824 52.912000000000006 6.336Q51.456 6.848 49.312 6.848ZM51.872 -0.384V-3.904H55.584V-0.384ZM50.368 -0.384 44.736 -17.376H49.216L54.56 -0.384Z"/><path d="M65.824 0.0V-23.36H70.272V0.0ZM63.648 -20.032V-23.36H70.272V-20.032Z"/><path d="M76.00000000000001 0.0V-17.376H79.52000000000001V-10.016H79.424Q79.424 -13.744 81.024 -15.672Q82.62400000000001 -17.6 85.72800000000001 -17.6H86.36800000000001V-13.728H85.15200000000002Q82.89600000000002 -13.728 81.67200000000001 -12.52Q80.44800000000001 -11.312 80.44800000000001 -9.040000000000001V0.0Z"/><path d="M90.816 0.0V-17.376H95.26400000000001V0.0ZM88.384 -14.048V-17.376H95.26400000000001V-14.048ZM92.44 -19.456Q91.13600000000001 -19.456 90.512 -20.136Q89.888 -20.816 89.888 -21.872Q89.888 -22.928 90.51390476190477 -23.608Q91.13980952380953 -24.288 92.432 -24.288Q93.744 -24.288 94.36 -23.608Q94.976 -22.928 94.976 -21.872Q94.976 -20.816 94.36 -20.136Q93.744 -19.456 92.44 -19.456Z"/><path d="M109.36000000000001 0.608Q107.072 0.608 105.31200000000001 -0.128Q103.552 -0.864 102.33600000000001 -2.12Q101.12 -3.376 100.49600000000001 -4.976Q99.87200000000001 -6.5760000000000005 99.87200000000001 -8.32V-8.992Q99.87200000000001 -10.768 100.52000000000001 -12.392Q101.168 -14.016 102.4 -15.271999999999998Q103.632 -16.528 105.39200000000001 -17.256Q107.15200000000002 -17.984 109.36000000000001 -17.984Q111.584 -17.984 113.33600000000001 -17.256Q115.08800000000001 -16.528 116.32000000000001 -15.271999999999998Q117.552 -14.016 118.20000000000002 -12.392Q118.84800000000001 -10.768 118.84800000000001 -8.992V-8.32Q118.84800000000001 -6.5760000000000005 118.22400000000002 -4.976Q117.60000000000001 -3.376 116.38400000000001 -2.12Q115.168 -0.864 113.40800000000002 -0.128Q111.64800000000001 0.608 109.36000000000001 0.608ZM109.36000000000001 -3.2Q110.992 -3.2 112.11200000000001 -3.912Q113.23200000000001 -4.624 113.816 -5.864Q114.4 -7.104 114.4 -8.656Q114.4 -10.256 113.80000000000001 -11.496Q113.20000000000002 -12.736 112.07200000000002 -13.456Q110.94400000000002 -14.176 109.36000000000001 -14.176Q107.792 -14.176 106.656 -13.456Q105.52000000000001 -12.736 104.92000000000002 -11.496Q104.32000000000001 -10.256 104.32000000000001 -8.656Q104.32000000000001 -7.104 104.90400000000001 -5.864Q105.48800000000001 -4.624 106.61600000000001 -3.912Q107.74400000000001 -3.2 109.36000000000001 -3.2Z"/></g>
<g fill="#2A2723" fill-opacity="0.74"><path d="M4.2827378845214845 16.9371435546875 1.8148183288574218 25.076701110839842H-0.24024411010742186L-0.16120388793945312 24.825540222167966L0.8855547790527344 24.506258666992185L3.1873335571289063 16.919203887939453L2.2978765563964845 16.617861999511717L2.376916778564453 16.36670111083984H5.409056884765625L5.329496551513672 16.617861999511717ZM4.769447998046875 24.627419555664062 6.745459106445312 22.544549224853515 6.982841217041015 22.684690002441403 5.653973663330078 25.477364776611328H5.542950775146484L4.916350219726562 25.076701110839842H1.2630804443359374L1.4588619995117187 24.48389666748047H5.2980312194824215Z"/><path d="M10.760890441894531 19.849402221679686Q10.392473663330078 19.849402221679686 10.09555549621582 20.07040083312988Q9.798637329101561 20.291399444580076 9.572048217773435 20.65929750061035Q9.345459106445311 21.027195556640624 9.194009384155272 21.470883834838865Q9.042559661865234 21.914572113037107 8.964299606323241 22.366191390991208Q8.88603955078125 22.81781066894531 8.88603955078125 23.20053189086914Q8.88603955078125 23.86743133544922 9.153319717407227 24.14641122436523Q9.420599884033203 24.425391113281247 9.852720550537109 24.425391113281247Q10.149901550292968 24.425391113281247 10.408731994628905 24.321651168823237Q10.667562438964843 24.21791122436523 10.906372772216796 23.96298161315918Q11.14518310546875 23.708052001953124 11.375283660888671 23.244733001708983H11.744484771728516Q11.420263549804687 24.003936889648436 11.094871383666991 24.432548889160152Q10.769479217529296 24.861160888671872 10.389226440429688 25.036531555175777Q10.008973663330078 25.211902221679686 9.506910552978514 25.211902221679686Q8.997565887451172 25.211902221679686 8.623813110351563 25.01365083312988Q8.250060333251952 24.815399444580077 8.046349166870115 24.42825727844238Q7.8426380004882805 24.041115112304688 7.8426380004882805 23.477692779541012Q7.8426380004882805 22.795192779541015 8.005788833618164 22.180033279418943Q8.168939666748047 21.564873779296875 8.464951110839843 21.058004501342772Q8.76096255493164 20.55113522338867 9.150054443359373 20.177515945434568Q9.539146331787109 19.803896667480466 9.997008331298828 19.598497222900388Q10.454870330810547 19.39309777832031 10.93925244140625 19.39309777832031Q11.411416107177734 19.39309777832031 11.706778106689452 19.552607833862304Q12.002140106201171 19.712117889404297 12.139290939331055 19.970948333740232Q12.276441772460938 20.22977877807617 12.276441772460938 20.528Q12.276441772460938 20.810620666503905 12.156191772460938 21.088951110839844Q12.035941772460937 21.36728155517578 11.846401550292967 21.529002777099606Q11.469921661376953 21.68500277709961 11.0879806060791 21.83450277709961Q10.706039550781249 21.984002777099608 10.317987884521482 22.123492721557618Q9.929936218261718 22.262982666015624 9.54058427429199 22.394932388305662Q9.151232330322266 22.5268821105957 8.7599306640625 22.648301666259766L8.779430664062499 22.17041955566406Q9.400309997558594 21.992319000244137 9.845429275512695 21.81707905578613Q10.290548553466795 21.641839111328125 10.583437942504881 21.474139389038086Q10.876327331542967 21.306439666748044 11.042986831665038 21.135749999999998Q11.20964633178711 20.96506033325195 11.279846054077147 20.79281033325195Q11.350045776367187 20.62056033325195 11.350045776367187 20.442459777832028Q11.350045776367187 20.262540222167967 11.2814063873291 20.13189077758789Q11.212766998291015 20.001241333007812 11.084197998046875 19.925321777343747Q10.955628997802734 19.849402221679686 10.760890441894531 19.849402221679686Z"/><path d="M13.172382110595702 23.74653744506836Q13.26078155517578 23.74653744506836 13.346841888427733 23.84949722290039Q13.432902221679687 23.95245700073242 13.62556311035156 24.24755755615234Q13.81874411010742 24.542658111572266 14.001134887695311 24.654978500366212Q14.183525665283202 24.767298889160156 14.368646331787108 24.767298889160156Q14.623445220947264 24.767298889160156 14.823514221191406 24.675649444580078Q15.023583221435546 24.584 15.137982666015624 24.404211166381835Q15.252382110595702 24.22442233276367 15.252382110595702 23.96624411010742Q15.252382110595702 23.78034466552734 15.190111999511718 23.588985443115234Q15.127841888427733 23.397626220703124 14.966511444091797 23.15829716491699Q14.805180999755859 22.91896810913086 14.500979888916014 22.587209442138672Q14.20327877807617 22.2549306640625 14.029597778320312 21.9884306640625Q13.855916778564453 21.721930664062498 13.784546112060546 21.48870944213867Q13.71317544555664 21.255488220214843 13.71317544555664 21.029545776367186Q13.71317544555664 20.57766366577148 13.923257278442382 20.205341888427732Q14.133339111328123 19.833020111083982 14.54362205505371 19.613058944702146Q14.953904998779295 19.39309777832031 15.542028442382811 19.39309777832031Q15.993131774902341 19.39309777832031 16.27172366333008 19.508668167114255Q16.550315551757812 19.6242385559082 16.68369627380371 19.81637933349609Q16.817076995849607 20.008520111083982 16.817076995849607 20.240701110839844Q16.817076995849607 20.396442443847654 16.748956329345702 20.520073165893553Q16.680835662841794 20.643703887939452 16.55863455200195 20.713514221191403Q16.43643344116211 20.783324554443357 16.274192108154296 20.783324554443357Q16.210232330322263 20.783324554443357 16.118452163696286 20.70649411010742Q16.02667199707031 20.62966366577148 15.850131774902342 20.379542999267578Q15.673591552734374 20.12942233276367 15.48548094177246 20.001761444091798Q15.297370330810546 19.874100555419922 15.12524966430664 19.874100555419922Q14.807011108398436 19.874100555419922 14.629952163696288 20.055189666748046Q14.45289321899414 20.23627877807617 14.45289321899414 20.563876556396483Q14.45289321899414 20.706876556396484 14.524133163452149 20.88575588989258Q14.595373107910156 21.06463522338867 14.763463607788085 21.30799444580078Q14.931554107666013 21.55135366821289 15.21885577392578 21.893773223876952Q15.512137329101561 22.230212890624998 15.68451805114746 22.518422668457028Q15.856898773193357 22.80663244628906 15.935678939819335 23.05220283508301Q16.01445910644531 23.297773223876952 16.01445910644531 23.522934112548825Q16.01445910644531 23.99717544555664 15.753157440185547 24.380027389526365Q15.49185577392578 24.76287933349609 15.041792663574217 24.98739077758789Q14.591729553222654 25.211902221679686 14.019465332031249 25.211902221679686Q13.530402221679687 25.211902221679686 13.21385055541992 25.081902221679684Q12.897298889160155 24.951902221679685 12.744678222656248 24.74312205505371Q12.592057556152342 24.534341888427733 12.592057556152342 24.303721221923826Q12.592057556152342 24.147979888916012 12.666678222656248 24.020839111328122Q12.741298889160156 23.893698333740232 12.872989944458006 23.820117889404294Q13.004680999755857 23.74653744506836 13.172382110595702 23.74653744506836Z"/><path d="M17.624882110595703 23.74653744506836Q17.71328155517578 23.74653744506836 17.799341888427733 23.84949722290039Q17.885402221679687 23.95245700073242 18.07806311035156 24.24755755615234Q18.27124411010742 24.542658111572266 18.453634887695312 24.654978500366212Q18.636025665283203 24.767298889160156 18.82114633178711 24.767298889160156Q19.075945220947265 24.767298889160156 19.276014221191403 24.675649444580078Q19.476083221435545 24.584 19.590482666015625 24.404211166381835Q19.7048821105957 24.22442233276367 19.7048821105957 23.96624411010742Q19.7048821105957 23.78034466552734 19.642611999511715 23.588985443115234Q19.580341888427732 23.397626220703124 19.419011444091794 23.15829716491699Q19.25768099975586 22.91896810913086 18.953479888916014 22.587209442138672Q18.655778778076172 22.2549306640625 18.482097778320313 21.9884306640625Q18.308416778564453 21.721930664062498 18.237046112060547 21.48870944213867Q18.16567544555664 21.255488220214843 18.16567544555664 21.029545776367186Q18.16567544555664 20.57766366577148 18.375757278442382 20.205341888427732Q18.585839111328124 19.833020111083982 18.99612205505371 19.613058944702146Q19.406404998779294 19.39309777832031 19.994528442382812 19.39309777832031Q20.445631774902342 19.39309777832031 20.72422366333008 19.508668167114255Q21.002815551757813 19.6242385559082 21.136196273803712 19.81637933349609Q21.269576995849608 20.008520111083982 21.269576995849608 20.240701110839844Q21.269576995849608 20.396442443847654 21.201456329345703 20.520073165893553Q21.133335662841795 20.643703887939452 21.011134552001952 20.713514221191403Q20.88893344116211 20.783324554443357 20.726692108154296 20.783324554443357Q20.662732330322264 20.783324554443357 20.570952163696287 20.70649411010742Q20.47917199707031 20.62966366577148 20.302631774902345 20.379542999267578Q20.126091552734373 20.12942233276367 19.93798094177246 20.001761444091798Q19.749870330810545 19.874100555419922 19.57774966430664 19.874100555419922Q19.259511108398435 19.874100555419922 19.08245216369629 20.055189666748046Q18.90539321899414 20.23627877807617 18.90539321899414 20.563876556396483Q18.90539321899414 20.706876556396484 18.97663316345215 20.88575588989258Q19.047873107910156 21.06463522338867 19.215963607788083 21.30799444580078Q19.384054107666014 21.55135366821289 19.671355773925782 21.893773223876952Q19.964637329101564 22.230212890624998 20.13701805114746 22.518422668457028Q20.309398773193358 22.80663244628906 20.388178939819333 23.05220283508301Q20.466959106445312 23.297773223876952 20.466959106445312 23.522934112548825Q20.466959106445312 23.99717544555664 20.205657440185547 24.380027389526365Q19.94435577392578 24.76287933349609 19.494292663574218 24.98739077758789Q19.044229553222657 25.211902221679686 18.47196533203125 25.211902221679686Q17.982902221679687 25.211902221679686 17.66635055541992 25.081902221679684Q17.349798889160155 24.951902221679685 17.197178222656248 24.74312205505371Q17.04455755615234 24.534341888427733 17.04455755615234 24.303721221923826Q17.04455755615234 24.147979888916012 17.11917822265625 24.020839111328122Q17.193798889160156 23.893698333740232 17.325489944458006 23.820117889404294Q17.45718099975586 23.74653744506836 17.624882110595703 23.74653744506836Z"/><path d="M36.3441255493164 16.93402288818359 35.3953869934082 16.610841888427736 35.468447326660154 16.36670111083984H38.111610992431636L38.038550659179684 16.610841888427736L37.037550659179686 16.93402288818359L32.621188659667965 25.196298889160154H32.22128433227539L31.737950775146484 17.61939599609375L32.20100833129883 17.47795910644531L26.940188659667967 25.196298889160154H26.54028433227539L27.061577667236328 16.950663665771483L26.258957000732423 16.610841888427736L26.332017333984375 16.36670111083984H29.41745910644531L29.343878662109375 16.610841888427736L28.175700439453124 16.936623443603516L27.725125549316406 23.584554779052734L27.397266326904294 23.583514556884765L32.3388127746582 16.24710333251953H32.758737213134765L33.24258810424804 23.82166989135742L32.64953332519531 24.043966003417967Z"/><path d="M39.82239044189453 19.849402221679686Q39.453973663330075 19.849402221679686 39.15705549621582 20.07040083312988Q38.86013732910156 20.291399444580076 38.63354821777344 20.65929750061035Q38.40695910644531 21.027195556640624 38.255509384155275 21.470883834838865Q38.104059661865236 21.914572113037107 38.02579960632325 22.366191390991208Q37.94753955078125 22.81781066894531 37.94753955078125 23.20053189086914Q37.94753955078125 23.86743133544922 38.214819717407224 24.14641122436523Q38.482099884033204 24.425391113281247 38.91422055053711 24.425391113281247Q39.21140155029297 24.425391113281247 39.470231994628904 24.321651168823237Q39.729062438964846 24.21791122436523 39.96787277221679 23.96298161315918Q40.20668310546875 23.708052001953124 40.43678366088867 23.244733001708983H40.80598477172852Q40.48176354980469 24.003936889648436 40.15637138366699 24.432548889160152Q39.8309792175293 24.861160888671872 39.45072644042969 25.036531555175777Q39.07047366333008 25.211902221679686 38.56841055297851 25.211902221679686Q38.05906588745117 25.211902221679686 37.68531311035156 25.01365083312988Q37.311560333251954 24.815399444580077 37.10784916687012 24.42825727844238Q36.90413800048828 24.041115112304688 36.90413800048828 23.477692779541012Q36.90413800048828 22.795192779541015 37.067288833618164 22.180033279418943Q37.23043966674805 21.564873779296875 37.526451110839844 21.058004501342772Q37.82246255493164 20.55113522338867 38.211554443359375 20.177515945434568Q38.60064633178711 19.803896667480466 39.058508331298825 19.598497222900388Q39.516370330810545 19.39309777832031 40.00075244140625 19.39309777832031Q40.47291610717773 19.39309777832031 40.76827810668945 19.552607833862304Q41.06364010620117 19.712117889404297 41.20079093933106 19.970948333740232Q41.33794177246094 20.22977877807617 41.33794177246094 20.528Q41.33794177246094 20.810620666503905 41.21769177246094 21.088951110839844Q41.09744177246094 21.36728155517578 40.90790155029297 21.529002777099606Q40.53142166137695 21.68500277709961 40.1494806060791 21.83450277709961Q39.76753955078125 21.984002777099608 39.37948788452148 22.123492721557618Q38.99143621826172 22.262982666015624 38.602084274292 22.394932388305662Q38.21273233032227 22.5268821105957 37.8214306640625 22.648301666259766L37.8409306640625 22.17041955566406Q38.461809997558596 21.992319000244137 38.906929275512695 21.81707905578613Q39.352048553466794 21.641839111328125 39.64493794250488 21.474139389038086Q39.93782733154297 21.306439666748044 40.10448683166504 21.135749999999998Q40.27114633178711 20.96506033325195 40.34134605407715 20.79281033325195Q40.411545776367184 20.62056033325195 40.411545776367184 20.442459777832028Q40.411545776367184 20.262540222167967 40.342906387329094 20.13189077758789Q40.27426699829101 20.001241333007812 40.14569799804687 19.925321777343747Q40.017128997802736 19.849402221679686 39.82239044189453 19.849402221679686Z"/><path d="M42.073459777832035 24.80863244628906 43.75877877807617 20.120839111328124 43.967042999267576 20.285683776855468Q43.745520111083984 20.278663665771482 43.47264944458008 20.388383499145505Q43.19977877807617 20.49810333251953 42.912738555908206 20.70493377685547Q42.62569833374023 20.911764221191405 42.35789666748047 21.211545776367185L42.15457489013672 21.01732455444336Q42.605155334472656 20.375123443603513 42.99008772277832 20.02308183288574Q43.375020111083984 19.671040222167967 43.71640361022949 19.53206900024414Q44.057787109375 19.39309777832031 44.36849099731445 19.39309777832031Q44.645657440185545 19.39309777832031 44.772668884277344 19.497749999999996Q44.89968032836914 19.602402221679686 44.83181832885742 19.796367553710937L43.14649932861328 24.614160888671872L43.01103399658203 24.34323577880859Q43.238536773681645 24.36767544555664 43.51686721801758 24.282395278930665Q43.795197662353516 24.197115112304687 44.097187606811524 24.012514556884764Q44.39917755126953 23.82791400146484 44.69089877319336 23.561152557373045L44.88122055053711 23.774873779296872Q44.422059661865234 24.31723577880859 44.02841749572754 24.631837722778318Q43.63477532958984 24.946439666748045 43.297942108154295 25.079170944213864Q42.96110888671875 25.211902221679686 42.6504049987793 25.211902221679686Q42.27158044433594 25.211902221679686 42.13533911132812 25.109979888916016Q41.99909777832031 25.00805755615234 42.073459777832035 24.80863244628906ZM44.26370388793946 16.65686755371094Q44.26370388793946 16.436904998779298 44.36289494323731 16.262833221435546Q44.46208599853516 16.088761444091794 44.635897720336914 15.98710055541992Q44.809709442138676 15.885439666748045 45.039551330566404 15.885439666748045Q45.384574218750004 15.885439666748045 45.60024655151368 16.106051666259766Q45.815918884277345 16.326663665771484 45.815918884277345 16.65686755371094Q45.815918884277345 16.876309997558593 45.716727828979494 17.05038177490234Q45.61753677368164 17.224453552246093 45.44372505187988 17.326374496459962Q45.269913330078126 17.42829544067383 45.039551330566404 17.42829544067383Q44.6950485534668 17.42829544067383 44.47937622070313 17.207163330078124Q44.26370388793946 16.98603121948242 44.26370388793946 16.65686755371094Z"/><path d="M50.82716299438477 20.370962554931637Q50.68442166137696 20.370962554931637 50.580030883789064 20.308041610717773Q50.475640106201176 20.245120666503905 50.36253955078125 20.154639389038085Q50.24943899536133 20.064158111572265 50.09629821777344 19.976017333984373Q49.94315744018555 19.887876556396485 49.71266610717774 19.831196945190428Q49.48217477416993 19.774517333984374 49.133772552490235 19.78491955566406L48.999355773925785 19.47213800048828Q49.52430099487305 19.551178222656247 49.890253494262694 19.52309777832031Q50.256205993652344 19.49501733398437 50.536356826782225 19.44041677856445Q50.81650765991211 19.38581622314453 51.08300765991211 19.38581622314453Q51.25200765991211 19.38581622314453 51.338588104248046 19.464336334228513Q51.42516854858399 19.5428564453125 51.42516854858399 19.700936889648435Q51.42516854858399 19.853557556152342 51.375118270874026 19.975238555908202Q51.32506799316407 20.096919555664062 51.24069732666016 20.185580444335937Q51.15632666015625 20.27424133300781 51.0506356048584 20.322601943969723Q50.94494454956055 20.370962554931637 50.82716299438477 20.370962554931637ZM47.5974306640625 23.10277877807617Q47.82285021972657 23.10277877807617 48.04046949768067 22.979797500610353Q48.25808877563477 22.85681622314453 48.4519178314209 22.63152461242676Q48.64574688720703 22.406233001708983 48.79134605407715 22.099041946411134Q48.936945220947266 21.79185089111328 49.02209466552735 21.423171279907226Q49.10724411010742 21.05449166870117 49.10724411010742 20.639534667968746Q49.10724411010742 20.19649722290039 48.95501560974121 20.000718444824216Q48.802787109375004 19.804939666748044 48.528749664306645 19.804939666748044Q48.303330108642584 19.804939666748044 48.085710830688484 19.927920944213867Q47.86809155273438 20.050902221679685 47.674262496948245 20.27619383239746Q47.48043344116211 20.501485443115232 47.33483427429199 20.808676498413085Q47.18923510742188 21.115867553710935 47.1040856628418 21.48454716491699Q47.01893621826172 21.853226776123044 47.01893621826172 22.268183776855466Q47.01893621826172 22.711221221923825 47.171164718627935 22.906999999999996Q47.32339321899414 23.10277877807617 47.5974306640625 23.10277877807617ZM48.60258877563477 19.39309777832031Q49.07189321899414 19.39309777832031 49.39663594055176 19.584458389282226Q49.72137866210938 19.77581900024414 49.89284988403321 20.115770111083982Q50.064321105957035 20.455721221923827 50.064321105957035 20.91696255493164Q50.064321105957035 21.43956311035156 49.8637306060791 21.9095128326416Q49.663140106201176 22.37946255493164 49.31018899536133 22.741122055053708Q48.95723788452149 23.10278155517578 48.50015605163574 23.30870111083984Q48.04307421875 23.514620666503905 47.52359155273438 23.514620666503905Q47.05480722045899 23.514620666503905 46.729804443359384 23.323260055541994Q46.40480166625977 23.13189944458008 46.23333044433594 22.788698333740236Q46.06185922241211 22.44549722290039 46.06185922241211 21.990755889892576Q46.06185922241211 21.468155334472655 46.26244972229004 20.998205612182616Q46.46304022216797 20.528255889892577 46.815991333007815 20.166596389770508Q47.16894244384766 19.804936889648438 47.6260242767334 19.599017333984374Q48.083106109619145 19.39309777832031 48.60258877563477 19.39309777832031ZM47.33273300170899 28.521701110839842Q46.7048307800293 28.521701110839842 46.211480224609375 28.424201110839842Q45.71812966918946 28.326701110839842 45.374929946899414 28.136511444091795Q45.031730224609376 27.946321777343748 44.8523307800293 27.667992721557617Q44.67293133544922 27.389663665771483 44.67293133544922 27.03398544311523Q44.67293133544922 26.626827331542966 44.941510391235354 26.322107498168943Q45.21008944702149 26.01738766479492 45.75284083557129 25.813287109374997Q46.295592224121094 25.609186553955077 47.12785922241211 25.510126220703125H47.69024133300782L47.68608044433594 25.658324554443357Q47.20247988891602 25.678864776611327 46.80975 25.775844665527345Q46.417020111083986 25.87282455444336 46.13609049987793 26.03428433227539Q45.855160888671875 26.19574411010742 45.70696116638184 26.418433776855466Q45.5587614440918 26.641123443603515 45.5587614440918 26.91360333251953Q45.5587614440918 27.27110055541992 45.76520111083985 27.535909500122067Q45.97164077758789 27.800718444824216 46.37789077758789 27.948918167114257Q46.78414077758789 28.097117889404295 47.38032177734375 28.097117889404295Q47.97702011108399 28.097117889404295 48.36038938903809 27.945278778076172Q48.74375866699219 27.793439666748046 48.93095838928223 27.548650833129884Q49.11815811157227 27.303861999511717 49.11815811157227 27.02800277709961Q49.11815811157227 26.774505554199216 48.99257905578614 26.58158738708496Q48.867000000000004 26.3886692199707 48.608691055297854 26.23761027526855Q48.3503821105957 26.086551330566405 47.95947261047364 25.94966194152832Q47.56856311035157 25.812772552490234 47.043361999511724 25.66535299682617Q46.56599722290039 25.53327255249023 46.310934112548836 25.34217199707031Q46.05587100219727 25.151071441650387 45.96135955810547 24.933840164184566Q45.86684811401368 24.71660888671875 45.86684811401368 24.49716644287109Q45.86684811401368 24.214542999267575 46.02791989135743 23.97664077758789Q46.18899166870118 23.738738555908203 46.497875167846686 23.553877944946287Q46.80675866699219 23.369017333984374 47.23576422119141 23.259298889160156L47.51292233276367 23.398399444580075Q47.10134188842774 23.45819833374023 46.891912277221685 23.63213800048828Q46.68248266601563 23.806077667236327 46.68248266601563 24.012517333984373Q46.68248266601563 24.114436889648434 46.7322728881836 24.213106445312498Q46.782063110351565 24.31177600097656 46.91570388793946 24.413435501098633Q47.04934466552735 24.5150950012207 47.302585998535164 24.626504501342772Q47.55582733154297 24.73791400146484 47.95674966430664 24.871293334960935Q48.74611166381836 25.12999166870117 49.19058288574219 25.40546150207519Q49.63505410766602 25.680931335449216 49.81341471862794 25.994751724243162Q49.99177532958985 26.30857211303711 49.99177532958985 26.703511779785153Q49.99177532958985 27.09689389038086 49.80704405212403 27.429955612182617Q49.622312774658205 27.763017333984372 49.27482005310058 28.005988555908203Q48.92732733154297 28.24895977783203 48.43631311035156 28.385330444335935Q47.945298889160156 28.521701110839842 47.33273300170899 28.521701110839842Z"/><path d="M52.34061721801758 23.58716644287109 51.89289877319336 25.076701110839842H50.926977111816406L53.396454223632816 16.883591552734373Q53.2799743347168 16.76945077514648 53.16817405700684 16.678320053100585Q53.05637377929688 16.587189331054688 52.9223436126709 16.508538497924803Q52.788313446044924 16.42988766479492 52.600333557128906 16.359166442871093L52.65701455688477 16.180022888183593L54.51993899536133 15.847999999999999H54.67776077270508L52.784430664062505 21.98453677368164L52.6999306640625 21.95749377441406Q52.9864535522461 21.44528433227539 53.31353538513184 20.98534049987793Q53.64061721801758 20.525396667480468 53.99603816223144 20.172056167602538Q54.35145910644531 19.818715667724607 54.733009384155274 19.61487655639648Q55.114559661865236 19.41103744506836 55.50455966186524 19.41103744506836Q56.0586227722168 19.41103744506836 56.271954605102536 19.648288833618164Q56.48528643798828 19.88554022216797 56.48528643798828 20.265402221679686Q56.48528643798828 20.47652288818359 56.42028643798828 20.736004165649412Q56.35528643798828 20.995485443115232 56.24166577148438 21.295266998291012L54.966108215332035 24.614160888671872L54.95050210571289 24.34713522338867Q55.1748842163086 24.346615112304686 55.43774482727051 24.254054779052733Q55.70060543823242 24.16149444580078 55.982705993652345 23.981313446044922Q56.26480654907227 23.80113244628906 56.534168548583985 23.550230224609372L56.736450103759765 23.757451446533203Q56.276248992919925 24.30449444580078 55.87909677124024 24.624426834106444Q55.48194454956055 24.944359222412107 55.14160127258301 25.0781307220459Q54.80125799560547 25.211902221679686 54.490033996582035 25.211902221679686Q54.05141055297852 25.211902221679686 53.9510485534668 25.083070388793942Q53.85068655395508 24.9542385559082 53.99680722045898 24.58139666748047L55.34074133300781 21.110151885986326Q55.397422332763675 20.961169219970703 55.43395249938965 20.82934883117676Q55.47048266601563 20.69752844238281 55.47048266601563 20.587548553466796Q55.47048266601563 20.42764910888672 55.369343276977546 20.33144938659668Q55.26820388793946 20.23524966430664 55.00508599853516 20.23524966430664Q54.70244799804688 20.23524966430664 54.33013038635254 20.493687942504884Q53.95781277465821 20.752126220703126 53.58042477416993 21.212064498901366Q53.203036773681646 21.672002777099607 52.87842755126954 22.2800128326416Q52.553818328857425 22.888022888183592 52.34061721801758 23.58716644287109Z"/><path d="M58.036936889648445 20.0633821105957 58.15497711181641 19.528298889160155H61.47208532714844L61.36548477172852 20.0633821105957ZM59.071507659912115 23.592857116699218Q59.03666577148438 23.716362670898437 59.01352499389649 23.81009533691406Q58.9903842163086 23.903828002929686 58.980114105224615 23.973509002685546Q58.96984399414063 24.043190002441406 58.96984399414063 24.097790557861327Q58.96984399414063 24.204391113281247 59.010404327392585 24.256391113281246Q59.05096466064454 24.30839111328125 59.11908532714844 24.30839111328125Q59.254024993896486 24.30839111328125 59.48802360534668 24.151352279663087Q59.72202221679688 23.99431344604492 60.008800994873056 23.710004501342773Q60.295579772949225 23.425695556640623 60.58964010620117 23.03621566772461L60.85692166137696 23.213537445068358Q60.56649932861328 23.66828155517578 60.274387329101565 24.032282943725583Q59.98227532958985 24.39628433227539 59.7009535522461 24.65849411010742Q59.41963177490235 24.920703887939453 59.15482005310059 25.060323165893553Q58.89000833129883 25.199942443847654 58.64222677612305 25.199942443847654Q58.348683776855474 25.199942443847654 58.17110194396973 25.030420944213866Q57.99352011108399 24.860899444580077 57.99352011108399 24.44203466796875Q57.99352011108399 24.25977322387695 58.03317094421387 24.013419891357422Q58.072821777343755 23.76706655883789 58.164083221435554 23.455322448730467L59.597723999023444 18.364011779785155H60.58132666015626Z"/><path d="M60.52591955566407 27.025402221679684Q61.154339111328134 26.65464077758789 61.50130894470216 26.339780166625975Q61.84827877807618 26.02491955566406 61.9875086669922 25.75815950012207Q62.12673855590821 25.491399444580075 62.12673855590821 25.27091955566406Q62.12673855590821 25.09177877807617 62.041458389282234 24.97139805603027Q61.956178222656256 24.851017333984373 61.84164805603028 24.75715672302246Q61.727117889404305 24.663296112060547 61.64183772277833 24.585165390014648Q61.55655755615235 24.50703466796875 61.55655755615235 24.41941400146484Q61.55655755615235 24.17163244628906 61.67030894470216 23.978840835571287Q61.78406033325196 23.786049224853514 61.987642166137704 23.673858169555665Q62.19122399902344 23.561667114257812 62.46396533203126 23.561667114257812Q62.779608886718755 23.561667114257812 62.98709016418458 23.767198669433593Q63.194571441650396 23.972730224609375 63.194571441650396 24.355192779541014Q63.194571441650396 24.694233001708984 63.0808214416504 25.040293334960936Q62.9670714416504 25.386353668212887 62.6939407196045 25.749054779052734Q62.4208099975586 26.111755889892578 61.94045805358887 26.515408111572263Q61.46010610961915 26.919060333251952 60.72040222167969 27.37328433227539Z"/><path d="M71.59100000000001 17.264738555908202 68.90728155517579 24.52055755615234 69.80506033325196 24.825540222167966 69.72602011108398 25.076701110839842H67.17567544555665L67.25471566772461 24.825540222167966L68.31239666748047 24.502617889404295L71.13131344604493 16.996163665771483L70.19661511230468 16.61682177734375L70.27513522338867 16.36670111083984H72.46306243896484L73.25111444091797 24.019793334960937L72.85694799804688 24.04631900024414L78.39441677856446 16.36670111083984H78.92586199951172L78.92014077758789 16.56534188842773L72.67443344116211 25.190319000244138H72.29402911376954L71.45579611206055 17.319341888427733ZM78.50205755615235 16.36670111083984H80.57220043945313L80.49368032836914 16.61682177734375L79.42404232788087 16.95846255493164L77.65942443847656 24.529919555664062L78.55148199462892 24.826580444335935L78.47296188354493 25.076701110839842H75.42886199951172L75.5073821105957 24.826580444335935L76.55310055541993 24.50885922241211Z"/><path d="M83.37030999755859 19.39309777832031Q83.91423510742187 19.39309777832031 84.30202810668945 19.62306900024414Q84.68982110595702 19.85304022216797 84.90029232788086 20.28412205505371Q85.11076354980469 20.715203887939452 85.11076354980469 21.327505554199217Q85.11076354980469 22.091126220703124 84.87507249450684 22.788055831909176Q84.63938143920898 23.48498544311523 84.22129960632324 24.03033460998535Q83.8032177734375 24.575683776855467 83.2440856628418 24.893792999267575Q82.68495355224609 25.211902221679686 82.03157144165039 25.211902221679686Q81.49362622070312 25.211902221679686 81.10284327697754 24.98193099975586Q80.71206033325196 24.75195977783203 80.50158911132812 24.31788800048828Q80.29111788940429 23.883816223144528 80.29111788940429 23.27749444580078Q80.29111788940429 22.513873779296873 80.52680894470214 21.81694416809082Q80.7625 21.120014556884765 81.18058183288574 20.574665390014648Q81.59866366577148 20.02931622314453 82.15779577636718 19.711207000732422Q82.71692788696289 19.39309777832031 83.37030999755859 19.39309777832031ZM82.04197088623046 24.75559777832031Q82.36358877563477 24.75559777832031 82.66635749816894 24.533297500610352Q82.96912622070312 24.31099722290039 83.22899549865721 23.928666778564452Q83.48886477661132 23.546336334228513 83.68555444335936 23.06273577880859Q83.88224411010742 22.57913522338867 83.99248405456544 22.05055477905273Q84.10272399902344 21.521974334716795 84.10272399902344 21.01341400146484Q84.10272399902344 20.410997222900388 83.92423544311524 20.130199722290037Q83.74574688720703 19.849402221679686 83.3599105529785 19.849402221679686Q83.03829266357421 19.849402221679686 82.73552394104004 20.071702499389644Q82.43275521850586 20.294002777099607 82.17288594055177 20.676333221435545Q81.91301666259766 21.058663665771483 81.71632699584961 21.542264221191406Q81.51963732910156 22.02586477661133 81.40939738464354 22.554445220947265Q81.29915744018554 23.083025665283202 81.29915744018554 23.591585998535155Q81.29915744018554 24.188022888183593 81.47764599609374 24.471810333251952Q81.65613455200194 24.75559777832031 82.04197088623046 24.75559777832031Z"/><path d="M87.73803744506836 20.25474688720703Q87.71203744506836 20.25474688720703 87.68928744506836 20.25474688720703Q87.66653744506836 20.25474688720703 87.64053744506836 20.25474688720703Q87.40445700073242 20.25474688720703 87.18605755615235 20.34444660949707Q86.96765811157226 20.434146331787108 86.74977877807618 20.665936553955078Q86.53189944458008 20.897726776123044 86.29633911132812 21.327508331298827L86.05037655639649 21.22584744262695Q86.31895700073242 20.519683776855466 86.63940811157227 20.123051666259762Q86.9598592224121 19.726419555664062 87.32022122192382 19.56300866699219Q87.68058322143554 19.399597778320313 88.04822677612304 19.399597778320313Q88.18316921997071 19.399597778320313 88.3101806640625 19.41558772277832Q88.43719210815429 19.431577667236326 88.56446360778808 19.45783772277832Q88.69173510742188 19.48409777832031 88.82017755126954 19.52413800048828L88.12675244140625 21.803059661865234L88.09009155273438 21.78849655151367Q88.50401388549805 20.955968109130858 88.8927163848877 20.426994110107422Q89.28141888427734 19.898020111083984 89.66700071716309 19.645558944702145Q90.05258255004883 19.39309777832031 90.44570321655273 19.39309777832031Q90.82764566040039 19.39309777832031 91.00717721557618 19.579649444580077Q91.18670877075195 19.766201110839845 91.18670877075195 20.05974411010742Q91.18670877075195 20.277626220703123 91.0780277709961 20.44818794250488Q90.96934677124024 20.61874966430664 90.79228504943848 20.71469071960449Q90.61522332763671 20.81063177490234 90.40384121704102 20.81063177490234Q90.34768032836914 20.81063177490234 90.28761999511718 20.759801330566404Q90.22755966186523 20.708970886230468 90.14045910644532 20.581830108642578Q90.0533585510254 20.44870944213867 89.97249794006348 20.383189331054687Q89.89163732910157 20.317669219970703 89.78451666259765 20.317669219970703Q89.62253677368165 20.317669219970703 89.4193471069336 20.46755860900879Q89.21615744018555 20.617447998046874 88.9967177734375 20.891357498168944Q88.77727810668945 21.165266998291013 88.55705827331542 21.546037109375Q88.3368384399414 21.926807220458983 88.13429821777343 22.391298553466797Q87.93175799560547 22.855789886474607 87.7715971069336 23.38385299682617L87.25628088378906 25.076701110839842H86.27735922241212Z"/><path d="M94.13639044189453 19.849402221679686Q93.76797366333008 19.849402221679686 93.47105549621583 20.07040083312988Q93.17413732910155 20.291399444580076 92.94754821777343 20.65929750061035Q92.7209591064453 21.027195556640624 92.56950938415527 21.470883834838865Q92.41805966186523 21.914572113037107 92.33979960632324 22.366191390991208Q92.26153955078125 22.81781066894531 92.26153955078125 23.20053189086914Q92.26153955078125 23.86743133544922 92.52881971740723 24.14641122436523Q92.7960998840332 24.425391113281247 93.2282205505371 24.425391113281247Q93.52540155029297 24.425391113281247 93.7842319946289 24.321651168823237Q94.04306243896484 24.21791122436523 94.28187277221679 23.96298161315918Q94.52068310546875 23.708052001953124 94.75078366088867 23.244733001708983H95.11998477172851Q94.79576354980469 24.003936889648436 94.47037138366699 24.432548889160152Q94.1449792175293 24.861160888671872 93.76472644042968 25.036531555175777Q93.38447366333008 25.211902221679686 92.88241055297851 25.211902221679686Q92.37306588745118 25.211902221679686 91.99931311035157 25.01365083312988Q91.62556033325195 24.815399444580077 91.42184916687012 24.42825727844238Q91.21813800048828 24.041115112304688 91.21813800048828 23.477692779541012Q91.21813800048828 22.795192779541015 91.38128883361816 22.180033279418943Q91.54443966674805 21.564873779296875 91.84045111083984 21.058004501342772Q92.13646255493164 20.55113522338867 92.52555444335937 20.177515945434568Q92.91464633178711 19.803896667480466 93.37250833129883 19.598497222900388Q93.83037033081055 19.39309777832031 94.31475244140626 19.39309777832031Q94.78691610717773 19.39309777832031 95.08227810668944 19.552607833862304Q95.37764010620117 19.712117889404297 95.51479093933105 19.970948333740232Q95.65194177246093 20.22977877807617 95.65194177246093 20.528Q95.65194177246093 20.810620666503905 95.53169177246093 21.088951110839844Q95.41144177246093 21.36728155517578 95.22190155029297 21.529002777099606Q94.84542166137695 21.68500277709961 94.46348060607909 21.83450277709961Q94.08153955078124 21.984002777099608 93.69348788452149 22.123492721557618Q93.30543621826172 22.262982666015624 92.91608427429199 22.394932388305662Q92.52673233032226 22.5268821105957 92.1354306640625 22.648301666259766L92.1549306640625 22.17041955566406Q92.7758099975586 21.992319000244137 93.2209292755127 21.81707905578613Q93.6660485534668 21.641839111328125 93.95893794250489 21.474139389038086Q94.25182733154297 21.306439666748044 94.41848683166504 21.135749999999998Q94.58514633178712 20.96506033325195 94.65534605407714 20.79281033325195Q94.72554577636718 20.62056033325195 94.72554577636718 20.442459777832028Q94.72554577636718 20.262540222167967 94.6569063873291 20.13189077758789Q94.58826699829102 20.001241333007812 94.45969799804688 19.925321777343747Q94.33112899780274 19.849402221679686 94.13639044189453 19.849402221679686Z"/><path d="M103.0055 17.264738555908202 100.32178155517578 24.52055755615234 101.21956033325195 24.825540222167966 101.14052011108397 25.076701110839842H98.59017544555664L98.6692156677246 24.825540222167966L99.72689666748046 24.502617889404295L102.54581344604492 16.996163665771483L101.61111511230467 16.61682177734375L101.68963522338866 16.36670111083984H103.87756243896484L104.66561444091796 24.019793334960937L104.27144799804687 24.04631900024414L109.80891677856445 16.36670111083984H110.34036199951171L110.33464077758788 16.56534188842773L104.0889334411621 25.190319000244138H103.70852911376953L102.87029611206054 17.319341888427733ZM109.91655755615234 16.36670111083984H111.98670043945312L111.90818032836913 16.61682177734375L110.83854232788084 16.95846255493164L109.07392443847655 24.529919555664062L109.9659819946289 24.826580444335935L109.88746188354492 25.076701110839842H106.84336199951171L106.9218821105957 24.826580444335935L107.96760055541992 24.50885922241211Z"/><path d="M114.7848099975586 19.39309777832031Q115.32873510742188 19.39309777832031 115.71652810668945 19.62306900024414Q116.10432110595703 19.85304022216797 116.31479232788087 20.28412205505371Q116.52526354980469 20.715203887939452 116.52526354980469 21.327505554199217Q116.52526354980469 22.091126220703124 116.28957249450684 22.788055831909176Q116.05388143920898 23.48498544311523 115.63579960632325 24.03033460998535Q115.2177177734375 24.575683776855467 114.6585856628418 24.893792999267575Q114.09945355224609 25.211902221679686 113.44607144165039 25.211902221679686Q112.90812622070312 25.211902221679686 112.51734327697754 24.98193099975586Q112.12656033325196 24.75195977783203 111.91608911132812 24.31788800048828Q111.7056178894043 23.883816223144528 111.7056178894043 23.27749444580078Q111.7056178894043 22.513873779296873 111.94130894470214 21.81694416809082Q112.177 21.120014556884765 112.59508183288574 20.574665390014648Q113.01316366577149 20.02931622314453 113.57229577636718 19.711207000732422Q114.1314278869629 19.39309777832031 114.7848099975586 19.39309777832031ZM113.45647088623046 24.75559777832031Q113.77808877563477 24.75559777832031 114.08085749816894 24.533297500610352Q114.38362622070312 24.31099722290039 114.64349549865722 23.928666778564452Q114.90336477661133 23.546336334228513 115.10005444335937 23.06273577880859Q115.29674411010743 22.57913522338867 115.40698405456544 22.05055477905273Q115.51722399902344 21.521974334716795 115.51722399902344 21.01341400146484Q115.51722399902344 20.410997222900388 115.33873544311524 20.130199722290037Q115.16024688720704 19.849402221679686 114.77441055297851 19.849402221679686Q114.45279266357421 19.849402221679686 114.15002394104005 20.071702499389644Q113.84725521850586 20.294002777099607 113.58738594055177 20.676333221435545Q113.32751666259766 21.058663665771483 113.13082699584962 21.542264221191406Q112.93413732910156 22.02586477661133 112.82389738464354 22.554445220947265Q112.71365744018554 23.083025665283202 112.71365744018554 23.591585998535155Q112.71365744018554 24.188022888183593 112.89214599609375 24.471810333251952Q113.07063455200195 24.75559777832031 113.45647088623046 24.75559777832031Z"/><path d="M124.60321710205079 24.614160888671872 124.58761099243165 24.34713522338867Q124.81199310302735 24.346615112304686 125.07485371398926 24.254054779052733Q125.33771432495118 24.16149444580078 125.61981488037111 23.981313446044922Q125.90191543579103 23.80113244628906 126.17127743530274 23.550230224609372L126.37355899047851 23.757451446533203Q125.91335787963868 24.30449444580078 125.51620565795899 24.624426834106444Q125.1190534362793 24.944359222412107 124.77871015930177 25.0781307220459Q124.43836688232422 25.211902221679686 124.12714288330079 25.211902221679686Q123.68851943969727 25.211902221679686 123.58815744018555 25.083070388793942Q123.48779544067384 24.9542385559082 123.63391610717774 24.58139666748047L124.98383010864258 21.086232330322265Q125.04051110839845 20.93724966430664 125.0710613861084 20.817389053344726Q125.10161166381836 20.69752844238281 125.10161166381836 20.593528442382812Q125.10161166381836 20.42764910888672 125.00125244140625 20.33443933105469Q124.90089321899414 20.241229553222656 124.65077532958985 20.241229553222656Q124.3697177734375 20.241229553222656 124.03614010620117 20.47392788696289Q123.70256243896485 20.70662622070312 123.35936410522461 21.12938488769531Q123.01616577148438 21.552143554687497 122.7032562713623 22.12778433227539Q122.39034677124025 22.70342510986328 122.15114566040039 23.38385021972656L121.61866854858398 25.076701110839842H120.62310610961914L121.93454299926758 21.07739044189453Q121.96964355468751 20.978588775634762 121.99317372131348 20.890968109130856Q122.01670388793946 20.80334744262695 122.02970388793946 20.72833738708496Q122.04270388793945 20.653327331542968 122.04270388793945 20.589887664794922Q122.04270388793945 20.424008331298825 121.9442943878174 20.33287899780273Q121.84588488769532 20.24174966430664 121.60876699829102 20.24174966430664Q121.30872955322266 20.24174966430664 120.9664421081543 20.494468109130857Q120.62415466308595 20.747186553955075 120.28524655151368 21.201404998779296Q119.94633843994141 21.655623443603513 119.6447392730713 22.26636338806152Q119.34314010620118 22.87710333251953 119.12395910644531 23.58716644287109L118.66974066162109 25.076701110839842H117.69185922241212L119.15253744506836 20.25474688720703Q119.12653744506837 20.25474688720703 119.10378744506836 20.25474688720703Q119.08103744506836 20.25474688720703 119.05503744506836 20.25474688720703Q118.81895700073242 20.25474688720703 118.60055755615235 20.34444660949707Q118.38215811157227 20.434146331787108 118.16427877807618 20.665936553955078Q117.94639944458008 20.897726776123044 117.71083911132813 21.327508331298827L117.46487655639649 21.22584744262695Q117.73345700073243 20.519683776855466 118.05390811157227 20.123051666259762Q118.37435922241211 19.726419555664062 118.73472122192382 19.56300866699219Q119.09508322143554 19.399597778320313 119.46272677612305 19.399597778320313Q119.59714910888673 19.399597778320313 119.72390049743653 19.41558772277832Q119.85065188598634 19.431577667236326 119.97740327453613 19.45783772277832Q120.10415466308594 19.48409777832031 120.23207699584961 19.52413800048828L119.4848328857422 21.964516662597653L119.4388127746582 21.949953552246093Q119.86573233032227 21.193088775634763 120.22310299682619 20.694535720825193Q120.58047366333008 20.195982666015624 120.8984549407959 19.911670944213867Q121.21643621826172 19.627359222412107 121.5097177734375 19.51022850036621Q121.80299932861328 19.39309777832031 122.09524066162109 19.39309777832031Q122.61680099487305 19.39309777832031 122.83598199462891 19.590569000244137Q123.05516299438477 19.788040222167968 123.05516299438477 20.119022888183594Q123.05516299438477 20.32728155517578 122.98756382751466 20.599889389038083Q122.91996466064454 20.87249722290039 122.80816577148438 21.23285366821289L122.67217755126954 21.691263549804685H122.6113356628418Q122.98001666259766 21.041775329589843 123.31450799560548 20.598860275268553Q123.64899932861329 20.155945220947263 123.96204093933106 19.88996255493164Q124.27508255004884 19.623979888916015 124.57369454956054 19.505548889160153Q124.87230654907226 19.387117889404294 125.16324899291993 19.387117889404294Q125.6972919921875 19.387117889404294 125.91283360290527 19.59446983337402Q126.12837521362304 19.801821777343747 126.12837521362304 20.157764221191407Q126.12837521362304 20.374864776611325 126.06038526916504 20.658265609741207Q125.99239532470703 20.941666442871092 125.85485510253906 21.307226776123045Z"/><path d="M130.14639044189454 19.849402221679686Q129.77797366333007 19.849402221679686 129.48105549621582 20.07040083312988Q129.18413732910156 20.291399444580076 128.95754821777342 20.65929750061035Q128.7309591064453 21.027195556640624 128.57950938415527 21.470883834838865Q128.42805966186523 21.914572113037107 128.34979960632324 22.366191390991208Q128.27153955078126 22.81781066894531 128.27153955078126 23.20053189086914Q128.27153955078126 23.86743133544922 128.53881971740725 24.14641122436523Q128.80609988403322 24.425391113281247 129.2382205505371 24.425391113281247Q129.53540155029296 24.425391113281247 129.7942319946289 24.321651168823237Q130.05306243896484 24.21791122436523 130.2918727722168 23.96298161315918Q130.53068310546877 23.708052001953124 130.76078366088868 23.244733001708983H131.12998477172852Q130.80576354980468 24.003936889648436 130.48037138366698 24.432548889160152Q130.1549792175293 24.861160888671872 129.77472644042967 25.036531555175777Q129.39447366333007 25.211902221679686 128.89241055297853 25.211902221679686Q128.38306588745118 25.211902221679686 128.00931311035157 25.01365083312988Q127.63556033325196 24.815399444580077 127.43184916687012 24.42825727844238Q127.22813800048829 24.041115112304688 127.22813800048829 23.477692779541012Q127.22813800048829 22.795192779541015 127.39128883361818 22.180033279418943Q127.55443966674805 21.564873779296875 127.85045111083986 21.058004501342772Q128.14646255493165 20.55113522338867 128.5355544433594 20.177515945434568Q128.9246463317871 19.803896667480466 129.38250833129882 19.598497222900388Q129.84037033081054 19.39309777832031 130.32475244140625 19.39309777832031Q130.79691610717774 19.39309777832031 131.09227810668946 19.552607833862304Q131.3876401062012 19.712117889404297 131.52479093933107 19.970948333740232Q131.66194177246095 20.22977877807617 131.66194177246095 20.528Q131.66194177246095 20.810620666503905 131.54169177246095 21.088951110839844Q131.42144177246095 21.36728155517578 131.23190155029297 21.529002777099606Q130.85542166137697 21.68500277709961 130.4734806060791 21.83450277709961Q130.09153955078125 21.984002777099608 129.70348788452148 22.123492721557618Q129.3154362182617 22.262982666015624 128.926084274292 22.394932388305662Q128.53673233032228 22.5268821105957 128.1454306640625 22.648301666259766L128.1649306640625 22.17041955566406Q128.7858099975586 21.992319000244137 129.23092927551272 21.81707905578613Q129.6760485534668 21.641839111328125 129.9689379425049 21.474139389038086Q130.26182733154297 21.306439666748044 130.42848683166505 21.135749999999998Q130.5951463317871 20.96506033325195 130.66534605407713 20.79281033325195Q130.7355457763672 20.62056033325195 130.7355457763672 20.442459777832028Q130.7355457763672 20.262540222167967 130.6669063873291 20.13189077758789Q130.59826699829102 20.001241333007812 130.46969799804688 19.925321777343747Q130.34112899780274 19.849402221679686 130.14639044189454 19.849402221679686Z"/><path d="M132.56983911132812 21.327508331298827 132.32387655639647 21.22584744262695Q132.59245700073242 20.519683776855466 132.91290811157228 20.123051666259762Q133.2333592224121 19.726419555664062 133.59372122192383 19.56300866699219Q133.95408322143555 19.399597778320313 134.32172677612306 19.399597778320313Q134.4566692199707 19.399597778320313 134.5836806640625 19.41558772277832Q134.7106921081543 19.431577667236326 134.83796360778808 19.45783772277832Q134.96523510742188 19.48409777832031 135.09367755126954 19.52413800048828L134.29859432983397 22.13195355224609L134.25855410766601 22.118950775146484Q134.55703677368163 21.570861999511717 134.89308843994138 21.08101872253418Q135.22914010620116 20.59117544555664 135.59652082824707 20.216905334472656Q135.96390155029297 19.84263522338867 136.35442166137696 19.626836334228514Q136.74494177246095 19.41103744506836 137.14690155029297 19.41103744506836Q137.70096466064453 19.41103744506836 137.9142964935303 19.648288833618164Q138.12762832641602 19.88554022216797 138.12762832641602 20.265402221679686Q138.12762832641602 20.47652288818359 138.06262832641602 20.736004165649412Q137.99762832641602 20.995485443115232 137.8840076599121 21.295266998291012L136.60845010375976 24.614160888671872L136.59284399414062 24.34713522338867Q136.81722610473633 24.346615112304686 137.08008671569826 24.254054779052733Q137.34294732666015 24.16149444580078 137.62504788208008 23.981313446044922Q137.9071484375 23.80113244628906 138.17651043701173 23.550230224609372L138.3787919921875 23.757451446533203Q137.91859088134765 24.30449444580078 137.52143865966798 24.624426834106444Q137.12428643798827 24.944359222412107 136.78394316101074 25.0781307220459Q136.4435998840332 25.211902221679686 136.13237588500976 25.211902221679686Q135.69375244140625 25.211902221679686 135.59339044189454 25.083070388793942Q135.4930284423828 24.9542385559082 135.63914910888673 24.58139666748047L136.98308322143555 21.110151885986326Q137.0397642211914 20.961169219970703 137.07629438781737 20.82934883117676Q137.11282455444336 20.69752844238281 137.11282455444336 20.587548553466796Q137.11282455444336 20.42764910888672 137.01168516540528 20.33144938659668Q136.9105457763672 20.23524966430664 136.6474278869629 20.23524966430664Q136.34478988647462 20.23524966430664 135.9727323303223 20.493687942504884Q135.60067477416993 20.752126220703126 135.22302671813964 21.212064498901366Q134.84537866210937 21.672002777099607 134.52076943969726 22.2800128326416Q134.19616021728515 22.888022888183592 133.98295910644532 23.58716644287109L133.5287406616211 25.076701110839842H132.5508592224121L134.01153744506837 20.25474688720703Q133.98553744506836 20.25474688720703 133.96278744506836 20.25474688720703Q133.94003744506836 20.25474688720703 133.91403744506835 20.25474688720703Q133.67795700073242 20.25474688720703 133.45955755615233 20.34444660949707Q133.24115811157228 20.434146331787108 133.0232787780762 20.665936553955078Q132.80539944458008 20.897726776123044 132.56983911132812 21.327508331298827Z"/><path d="M139.67693688964843 20.0633821105957 139.7949771118164 19.528298889160155H143.11208532714843L143.0054847717285 20.0633821105957ZM140.7115076599121 23.592857116699218Q140.67666577148435 23.716362670898437 140.65352499389647 23.81009533691406Q140.63038421630858 23.903828002929686 140.62011410522462 23.973509002685546Q140.60984399414062 24.043190002441406 140.60984399414062 24.097790557861327Q140.60984399414062 24.204391113281247 140.65040432739255 24.256391113281246Q140.6909646606445 24.30839111328125 140.75908532714843 24.30839111328125Q140.89402499389647 24.30839111328125 141.12802360534667 24.151352279663087Q141.36202221679687 23.99431344604492 141.64880099487306 23.710004501342773Q141.9355797729492 23.425695556640623 142.22964010620117 23.03621566772461L142.49692166137694 23.213537445068358Q142.20649932861326 23.66828155517578 141.91438732910154 24.032282943725583Q141.62227532958983 24.39628433227539 141.34095355224608 24.65849411010742Q141.05963177490233 24.920703887939453 140.79482005310058 25.060323165893553Q140.53000833129883 25.199942443847654 140.28222677612303 25.199942443847654Q139.98868377685545 25.199942443847654 139.81110194396973 25.030420944213866Q139.63352011108398 24.860899444580077 139.63352011108398 24.44203466796875Q139.63352011108398 24.25977322387695 139.67317094421387 24.013419891357422Q139.71282177734375 23.76706655883789 139.80408322143555 23.455322448730467L141.23772399902342 18.364011779785155H142.22132666015625Z"/><path d="M146.62051110839843 24.819034667968747 147.33473233032225 22.47902633666992 147.39323510742187 22.493589447021485Q146.92263732910155 23.332609558105467 146.53822782897947 23.868211502075194Q146.15381832885743 24.40381344604492 145.82413732910157 24.69501594543457Q145.4944563293457 24.986218444824217 145.19701388549805 25.099060333251952Q144.89957144165038 25.211902221679686 144.59692788696287 25.211902221679686Q144.12866366577148 25.211902221679686 143.91910194396974 25.001560333251952Q143.70954022216796 24.791218444824217 143.70954022216796 24.43527600097656Q143.70954022216796 24.224155334472655 143.77805027770995 23.941014556884767Q143.84656033325194 23.657873779296875 143.98306033325196 23.297773223876952L145.21493688964844 19.990839111328125L145.40318099975585 20.27970388793945Q145.16917822265623 20.26670388793945 144.8781078338623 20.373433776855464Q144.58703744506835 20.48016366577148 144.28179750061034 20.692713943481444Q143.97655755615233 20.905264221191405 143.68483633422852 21.211025665283202L143.4635748901367 21.01082455444336Q143.92013522338866 20.392542999267576 144.31650727844237 20.040761444091796Q144.7128793334961 19.688979888916016 145.07168238830565 19.541038833618163Q145.43048544311523 19.39309777832031 145.75912899780272 19.39309777832031Q146.0602149963379 19.39309777832031 146.19294627380373 19.497749999999996Q146.32567755126954 19.602402221679686 146.25235577392579 19.796367553710937L144.85044454956054 23.57856655883789Q144.80026354980467 23.728069335937498 144.76945321655273 23.84467994689941Q144.73864288330077 23.961290557861325 144.73864288330077 24.053330780029295Q144.73864288330077 24.200750335693357 144.82964288330078 24.282260391235347Q144.9206428833008 24.36377044677734 145.12396188354492 24.36377044677734Q145.3881199951172 24.36377044677734 145.7283269958496 24.123662612915037Q146.06853399658203 23.883554779052734 146.42096083068847 23.44818827819824Q146.7733876647949 23.01282177734375 147.08941505432128 22.417555831909176Q147.40544244384765 21.822289886474607 147.62124133300782 21.111973663330076L148.10458599853516 19.528298889160155H149.08246743774413L147.55730654907225 24.560341888427732L147.53676077270507 24.34063522338867Q147.75802221679686 24.362474334716794 148.03479232788084 24.275893890380857Q148.31156243896484 24.18931344604492 148.61381243896483 24.00367266845703Q148.91606243896484 23.81803189086914 149.20726354980468 23.54866989135742L149.3986255493164 23.760830780029295Q148.71170599365234 24.583474334716794 148.17519177246095 24.89768827819824Q147.63867755126952 25.211902221679686 147.18861444091797 25.211902221679686Q146.81863177490234 25.211902221679686 146.6907108306885 25.116870666503907Q146.5627898864746 25.021839111328124 146.62051110839843 24.819034667968747Z"/><path d="M157.13571710205076 24.614160888671872 157.12011099243162 24.34713522338867Q157.34449310302733 24.346615112304686 157.60735371398926 24.254054779052733Q157.87021432495115 24.16149444580078 158.15231488037108 23.981313446044922Q158.434415435791 23.80113244628906 158.70377743530273 23.550230224609372L158.9060589904785 23.757451446533203Q158.44585787963865 24.30449444580078 158.04870565795898 24.624426834106444Q157.6515534362793 24.944359222412107 157.31121015930177 25.0781307220459Q156.9708668823242 25.211902221679686 156.65964288330076 25.211902221679686Q156.22101943969724 25.211902221679686 156.12065744018554 25.083070388793942Q156.0202954406738 24.9542385559082 156.16641610717772 24.58139666748047L157.51633010864256 21.086232330322265Q157.57301110839842 20.93724966430664 157.60356138610837 20.817389053344726Q157.63411166381835 20.69752844238281 157.63411166381835 20.593528442382812Q157.63411166381835 20.42764910888672 157.53375244140625 20.33443933105469Q157.43339321899413 20.241229553222656 157.18327532958983 20.241229553222656Q156.90221777343748 20.241229553222656 156.56864010620114 20.47392788696289Q156.23506243896483 20.70662622070312 155.8918641052246 21.12938488769531Q155.54866577148437 21.552143554687497 155.23575627136228 22.12778433227539Q154.92284677124022 22.70342510986328 154.68364566040037 23.38385021972656L154.15116854858397 25.076701110839842H153.15560610961913L154.46704299926756 21.07739044189453Q154.50214355468748 20.978588775634762 154.52567372131347 20.890968109130856Q154.54920388793946 20.80334744262695 154.56220388793946 20.72833738708496Q154.57520388793944 20.653327331542968 154.57520388793944 20.589887664794922Q154.57520388793944 20.424008331298825 154.47679438781736 20.33287899780273Q154.3783848876953 20.24174966430664 154.141266998291 20.24174966430664Q153.84122955322263 20.24174966430664 153.49894210815427 20.494468109130857Q153.15665466308593 20.747186553955075 152.81774655151366 21.201404998779296Q152.4788384399414 21.655623443603513 152.17723927307128 22.26636338806152Q151.87564010620116 22.87710333251953 151.6564591064453 23.58716644287109L151.2022406616211 25.076701110839842H150.2243592224121L151.68503744506836 20.25474688720703Q151.65903744506835 20.25474688720703 151.63628744506835 20.25474688720703Q151.61353744506835 20.25474688720703 151.58753744506834 20.25474688720703Q151.3514570007324 20.25474688720703 151.13305755615232 20.34444660949707Q150.91465811157227 20.434146331787108 150.69677877807618 20.665936553955078Q150.47889944458007 20.897726776123044 150.2433391113281 21.327508331298827L149.99737655639646 21.22584744262695Q150.2659570007324 20.519683776855466 150.58640811157227 20.123051666259762Q150.9068592224121 19.726419555664062 151.26722122192382 19.56300866699219Q151.62758322143554 19.399597778320313 151.99522677612305 19.399597778320313Q152.1296491088867 19.399597778320313 152.25640049743652 19.41558772277832Q152.3831518859863 19.431577667236326 152.5099032745361 19.45783772277832Q152.63665466308592 19.48409777832031 152.7645769958496 19.52413800048828L152.01733288574218 21.964516662597653L151.9713127746582 21.949953552246093Q152.39823233032226 21.193088775634763 152.75560299682616 20.694535720825193Q153.11297366333008 20.195982666015624 153.4309549407959 19.911670944213867Q153.74893621826172 19.627359222412107 154.0422177734375 19.51022850036621Q154.33549932861328 19.39309777832031 154.6277406616211 19.39309777832031Q155.14930099487304 19.39309777832031 155.3684819946289 19.590569000244137Q155.58766299438474 19.788040222167968 155.58766299438474 20.119022888183594Q155.58766299438474 20.32728155517578 155.52006382751463 20.599889389038083Q155.45246466064452 20.87249722290039 155.34066577148437 21.23285366821289L155.20467755126953 21.691263549804685H155.14383566284178Q155.51251666259765 21.041775329589843 155.84700799560545 20.598860275268553Q156.18149932861326 20.155945220947263 156.49454093933105 19.88996255493164Q156.8075825500488 19.623979888916015 157.10619454956054 19.505548889160153Q157.40480654907225 19.387117889404294 157.6957489929199 19.387117889404294Q158.2297919921875 19.387117889404294 158.44533360290527 19.59446983337402Q158.66087521362303 19.801821777343747 158.66087521362303 20.157764221191407Q158.66087521362303 20.374864776611325 158.59288526916504 20.658265609741207Q158.52489532470702 20.941666442871092 158.38735510253906 21.307226776123045Z"/></g>
</g></g></svg>