<svg xmlns="http://www.w3.org/2000/svg" width="196.18" height="137.12" viewBox="0 0 196.18 137.12">
<g transform="translate(18.00,18.00)">
<g transform="translate(50.004,-11.358) scale(0.48333)" fill="none" stroke-linecap="round" stroke-linejoin="round">
<path d="M22 28 L50 90" stroke="#F2EEE6" stroke-width="9"/>
<path d="M50 90 L78 28" stroke="#F2EEE6" stroke-width="9"/>
<path d="M50 90 L93 37" stroke="#E0906F" stroke-width="6"/>
<path d="M50 90 L105 49" stroke="#E0906F" stroke-width="4.5" stroke-opacity="0.7"/>
</g>
<g fill="#F2EEE6"><path d="M27.17575799560547 73.36366666666667 19.50325799560547 49.27366666666667H24.337757995605468L30.70675799560547 70.14616666666667L29.33725799560547 69.46966666666667H32.90125799560547L31.46575799560547 70.14616666666667L37.35625799560547 49.27366666666667H42.04225799560547L34.897757995605474 73.36366666666667Z"/><path d="M54.15325799560547 73.99066666666667Q51.84325799560547 73.99066666666667 50.11075799560547 73.19866666666667Q48.378257995605466 72.40666666666668 47.239757995605466 71.07841666666667Q46.101257995605465 69.75016666666667 45.523757995605465 68.10016666666667Q44.946257995605464 66.45016666666668 44.946257995605464 64.71766666666667V64.09066666666668Q44.946257995605464 62.308666666666674 45.523757995605465 60.65041666666667Q46.101257995605465 58.99216666666668 47.23150799560547 57.68041666666667Q48.361757995605466 56.36866666666667 50.05300799560547 55.593166666666676Q51.744257995605466 54.817666666666675 53.955257995605464 54.817666666666675Q56.85925799560547 54.817666666666675 58.81450799560547 56.09641666666667Q60.76975799560547 57.37516666666667 61.76800799560547 59.42941666666667Q62.76625799560547 61.48366666666667 62.76625799560547 63.85966666666667V65.52616666666667H46.89325799560547V62.721166666666676H59.87875799560547L58.476257995605465 64.09066666666668Q58.476257995605465 62.37466666666667 57.97300799560547 61.15366666666667Q57.46975799560547 59.93266666666668 56.471507995605464 59.27266666666667Q55.473257995605465 58.61266666666667 53.955257995605464 58.61266666666667Q52.42075799560547 58.61266666666667 51.36475799560547 59.31391666666667Q50.30875799560547 60.01516666666667 49.772507995605466 61.31041666666667Q49.23625799560547 62.60566666666667 49.23625799560547 64.42066666666668Q49.23625799560547 66.12016666666668 49.75600799560547 67.42366666666668Q50.27575799560547 68.72716666666668 51.36475799560547 69.46141666666668Q52.45375799560547 70.19566666666667 54.15325799560547 70.19566666666667Q55.81975799560547 70.19566666666667 56.87575799560547 69.51916666666668Q57.931757995605466 68.84266666666667 58.22875799560547 67.86916666666667H62.45275799560547Q62.073257995605466 69.70066666666668 60.94300799560547 71.08666666666667Q59.812757995605466 72.47266666666667 58.08850799560547 73.23166666666667Q56.36425799560547 73.99066666666667 54.15325799560547 73.99066666666667Z"/><path d="M66.72625799560547 80.42566666666667V76.49866666666668H70.09225799560548Q71.03275799560546 76.49866666666668 71.68450799560547 76.25941666666668Q72.33625799560548 76.02016666666667 72.75700799560548 75.46741666666668Q73.17775799560548 74.91466666666668 73.42525799560548 73.97416666666668L78.24325799560548 55.44466666666668H82.63225799560547L77.30275799560548 74.96416666666667Q76.77475799560547 76.96066666666667 75.82600799560547 78.16516666666666Q74.87725799560548 79.36966666666667 73.37575799560548 79.89766666666668Q71.87425799560548 80.42566666666667 69.66325799560548 80.42566666666667ZM72.30325799560548 72.96766666666667V69.33766666666668H76.13125799560547V72.96766666666667ZM70.75225799560548 72.96766666666667 64.94425799560547 55.44466666666668H69.56425799560547L75.07525799560547 72.96766666666667Z"/><path d="M86.69125799560547 73.36366666666667V49.27366666666667H91.27825799560547V73.36366666666667ZM84.44725799560547 52.70566666666667V49.27366666666667H91.27825799560547V52.70566666666667Z"/><path d="M97.18525799560547 73.36366666666667V55.44466666666668H100.81525799560546V63.03466666666667H100.71625799560547Q100.71625799560547 59.19016666666667 102.36625799560548 57.20191666666667Q104.01625799560547 55.21366666666667 107.21725799560546 55.21366666666667H107.87725799560548V59.20666666666668H106.62325799560547Q104.29675799560547 59.20666666666668 103.03450799560548 60.45241666666668Q101.77225799560547 61.69816666666667 101.77225799560547 64.04116666666667V73.36366666666667Z"/><path d="M112.46425799560548 73.36366666666667V55.44466666666668H117.05125799560548V73.36366666666667ZM109.95625799560547 58.87666666666667V55.44466666666668H117.05125799560548V58.87666666666667ZM114.13900799560548 53.299666666666674Q112.79425799560548 53.299666666666674 112.15075799560547 52.59841666666668Q111.50725799560547 51.89716666666668 111.50725799560547 50.80816666666667Q111.50725799560547 49.71916666666667 112.15272228131977 49.01791666666668Q112.79818656703405 48.31666666666668 114.13075799560548 48.31666666666668Q115.48375799560547 48.31666666666668 116.11900799560547 49.01791666666668Q116.75425799560547 49.71916666666667 116.75425799560547 50.80816666666667Q116.75425799560547 51.89716666666668 116.11900799560547 52.59841666666668Q115.48375799560547 53.299666666666674 114.13900799560548 53.299666666666674Z"/><path d="M131.58775799560547 73.99066666666667Q129.22825799560547 73.99066666666667 127.41325799560548 73.23166666666667Q125.59825799560548 72.47266666666667 124.34425799560549 71.17741666666667Q123.09025799560548 69.88216666666668 122.44675799560548 68.23216666666667Q121.80325799560548 66.58216666666668 121.80325799560548 64.78366666666668V64.09066666666668Q121.80325799560548 62.25916666666667 122.47150799560548 60.58441666666667Q123.13975799560548 58.90966666666667 124.41025799560548 57.61441666666667Q125.68075799560548 56.319166666666675 127.49575799560549 55.56841666666668Q129.31075799560548 54.817666666666675 131.58775799560547 54.817666666666675Q133.8812579956055 54.817666666666675 135.6880079956055 55.56841666666668Q137.49475799560548 56.319166666666675 138.76525799560548 57.61441666666667Q140.03575799560548 58.90966666666667 140.70400799560548 60.58441666666667Q141.37225799560548 62.25916666666667 141.37225799560548 64.09066666666668V64.78366666666668Q141.37225799560548 66.58216666666668 140.72875799560546 68.23216666666667Q140.08525799560547 69.88216666666668 138.83125799560548 71.17741666666667Q137.5772579956055 72.47266666666667 135.76225799560547 73.23166666666667Q133.94725799560547 73.99066666666667 131.58775799560547 73.99066666666667ZM131.58775799560547 70.06366666666668Q133.2707579956055 70.06366666666668 134.4257579956055 69.32941666666667Q135.5807579956055 68.59516666666667 136.1830079956055 67.31641666666667Q136.7852579956055 66.03766666666667 136.7852579956055 64.43716666666667Q136.7852579956055 62.78716666666667 136.16650799560549 61.508416666666676Q135.54775799560548 60.229666666666674 134.38450799560547 59.487166666666674Q133.22125799560547 58.744666666666674 131.58775799560547 58.744666666666674Q129.97075799560548 58.744666666666674 128.79925799560547 59.487166666666674Q127.62775799560548 60.229666666666674 127.00900799560549 61.508416666666676Q126.39025799560548 62.78716666666667 126.39025799560548 64.43716666666667Q126.39025799560548 66.03766666666667 126.99250799560548 67.31641666666667Q127.59475799560548 68.59516666666667 128.75800799560548 69.32941666666667Q129.9212579956055 70.06366666666668 131.58775799560547 70.06366666666668Z"/></g>
<g fill="#F2EEE6" fill-opacity="0.8"><path d="M3.953296508789063 90.43102994791667 1.6752169189453125 97.9444676920573H-0.2217637939453125L-0.1488035888671875 97.7126268717448L0.8174351806640625 97.41790543619793L2.942154052734375 90.41447025553387L2.1211168212890628 90.1363085123698L2.1940770263671876 89.9044676920573H4.9929755859375L4.919535278320312 90.1363085123698ZM4.4025673828125 97.52974625651042 6.22657763671875 95.60709672037761 6.445699584960938 95.73645743815105 5.219052612304687 98.31431107584636H5.116569946289062L4.53816943359375 97.9444676920573H1.16592041015625L1.346641845703125 97.3972635904948H4.890490356445312Z"/><path d="M10.473129638671875 93.11926871744792Q10.133052612304688 93.11926871744792 9.858974304199219 93.32326743570965Q9.58489599609375 93.52726615397137 9.37573681640625 93.86686435953777Q9.166577636718749 94.20646256510418 9.026777893066406 94.61602097574871Q8.886978149414062 95.02557938639323 8.814738098144531 95.44245871988933Q8.742498046875 95.85933805338543 8.742498046875 96.21261918131512Q8.742498046875 96.8282186686198 8.989218200683593 97.08573856608074Q9.235938354492188 97.34325846354167 9.634818969726563 97.34325846354167Q9.909139892578125 97.34325846354167 10.148060302734375 97.24749851481121Q10.386980712890624 97.15173856608074 10.607421020507811 96.91641892496746Q10.827861328125 96.68109928385418 11.040261840820312 96.25342020670574H11.381062866210938Q11.08178173828125 96.95422379557293 10.781419738769532 97.34986564127605Q10.481057739257812 97.74550748697918 10.13005517578125 97.90738810221356Q9.779052612304687 98.06926871744793 9.315609741210938 98.06926871744793Q8.845445434570312 98.06926871744793 8.50044287109375 97.88626743570964Q8.155440307617187 97.70326615397137 7.967399230957032 97.34590415445965Q7.779358154296875 96.98854215494792 7.779358154296875 96.46846000162762Q7.779358154296875 95.83846000162761 7.929958923339843 95.27062046305339Q8.080559692382812 94.70278092447917 8.353801025390624 94.23490159098307Q8.627042358398437 93.76702225748699 8.9862041015625 93.42214292399089Q9.345365844726562 93.0772635904948 9.768007690429688 92.8876641031901Q10.190649536132813 92.69806461588543 10.637771484375 92.69806461588543Q11.073614868164062 92.69806461588543 11.346256713867188 92.84530466715495Q11.618898559570312 92.99254471842448 11.745499328613281 93.23146512858074Q11.87210009765625 93.47038553873699 11.87210009765625 93.74566666666668Q11.87210009765625 94.00654728190105 11.76110009765625 94.2634676920573Q11.65010009765625 94.52038810221354 11.475139892578124 94.66966923014324Q11.127619995117188 94.81366923014323 10.775059020996093 94.95166923014324Q10.422498046874999 95.08966923014324 10.064296508789063 95.21842917887372Q9.706094970703125 95.34718912760418 9.346693176269532 95.46898887125653Q8.987291381835938 95.59078861490886 8.62608984375 95.70286820475262L8.644089843749999 95.26174625651042Q9.217209228515625 95.09734574381511 9.628088562011719 94.93558579508465Q10.038967895507813 94.77382584635417 10.309327331542969 94.61902610270184Q10.579686767578124 94.46422635904949 10.733526306152344 94.30666666666667Q10.887365844726563 94.14910697428387 10.952165588378907 93.99010697428386Q11.01696533203125 93.83110697428387 11.01696533203125 93.66670646158855Q11.01696533203125 93.5006268717448 10.953605895996095 93.38002738444011Q10.890246459960938 93.25942789713542 10.7715673828125 93.18934830729168Q10.652888305664062 93.11926871744792 10.473129638671875 93.11926871744792Z"/><path d="M13.239121948242188 96.71662430826824Q13.320721435546876 96.71662430826824 13.400161743164062 96.81166410319011Q13.47960205078125 96.90670389811199 13.65744287109375 97.1791044108073Q13.835763793945313 97.45150492350261 14.00412451171875 97.55518528238933Q14.172485229492187 97.65886564127605 14.343365844726563 97.65886564127605Q14.578564819335938 97.65886564127605 14.763243896484376 97.57426615397137Q14.947922973632812 97.48966666666668 15.0535224609375 97.32370774332684Q15.159121948242188 97.15774881998699 15.159121948242188 96.91943046061199Q15.159121948242188 96.7478309733073 15.101641845703124 96.57119169108074Q15.044161743164063 96.39455240885418 14.895241333007814 96.1736332804362Q14.746320922851563 95.95271415201825 14.465519897460938 95.64647538248698Q14.190718872070313 95.33975651041668 14.03039794921875 95.09375651041668Q13.870077026367188 94.84775651041667 13.804196411132812 94.63247538248699Q13.738315795898437 94.4171942545573 13.738315795898437 94.20863199869792Q13.738315795898437 93.79151005045574 13.932237487792968 93.44782840983075Q14.1261591796875 93.10414676920574 14.504881896972655 92.90110569254558Q14.883604614257813 92.69806461588543 15.42648779296875 92.69806461588543Q15.842890869140625 92.69806461588543 16.100052612304687 92.80474497477215Q16.35721435546875 92.91142533365887 16.480335021972657 93.0887860514323Q16.60345568847656 93.26614676920573 16.60345568847656 93.4804676920573Q16.60345568847656 93.62422892252606 16.540575073242188 93.73834958902995Q16.47769445800781 93.85247025553386 16.364893432617187 93.91691056315105Q16.252092407226563 93.98135087076824 16.10233117675781 93.98135087076824Q16.04329138183594 93.98135087076824 15.958571228027346 93.91043046061199Q15.87385107421875 93.83951005045574 15.710890869140625 93.60862943522136Q15.5479306640625 93.37774881998699 15.374290100097657 93.25990799967448Q15.200649536132813 93.14206717936199 15.041768920898438 93.14206717936199Q14.74801025390625 93.14206717936199 14.584571228027343 93.30922635904949Q14.421132202148437 93.47638553873699 14.421132202148437 93.77878348795574Q14.421132202148437 93.91078348795574 14.486892150878905 94.07590287272137Q14.552652099609375 94.24102225748699 14.707812561035157 94.46566153971355Q14.862973022460938 94.69030082194011 15.128174560546874 95.00638041178387Q15.39889599609375 95.31694010416668 15.558016662597655 95.58297989908854Q15.717137329101563 95.84901969401042 15.789857482910158 96.07570005289713Q15.86257763671875 96.30238041178386 15.86257763671875 96.51022123209637Q15.86257763671875 96.94798246256511 15.621376098632812 97.3013842569987Q15.380174560546875 97.6547860514323 14.964731689453124 97.86202738444011Q14.549288818359376 98.06926871744793 14.021044921875 98.06926871744793Q13.56960205078125 98.06926871744793 13.277400512695312 97.94926871744792Q12.985198974609375 97.82926871744793 12.844318359375 97.63654856363934Q12.703437744140626 97.44382840983074 12.703437744140626 97.23094779459636Q12.703437744140626 97.08718656412762 12.772318359375 96.96982584635418Q12.841198974609375 96.85246512858073 12.962759948730469 96.78454471842448Q13.084320922851562 96.71662430826824 13.239121948242188 96.71662430826824Z"/><path d="M17.889121948242188 96.71662430826824Q17.970721435546874 96.71662430826824 18.05016174316406 96.81166410319011Q18.12960205078125 96.90670389811199 18.307442871093752 97.1791044108073Q18.485763793945313 97.45150492350261 18.65412451171875 97.55518528238933Q18.822485229492187 97.65886564127605 18.99336584472656 97.65886564127605Q19.228564819335936 97.65886564127605 19.413243896484374 97.57426615397137Q19.597922973632812 97.48966666666668 19.7035224609375 97.32370774332684Q19.809121948242186 97.15774881998699 19.809121948242186 96.91943046061199Q19.809121948242186 96.7478309733073 19.751641845703126 96.57119169108074Q19.694161743164063 96.39455240885418 19.545241333007812 96.1736332804362Q19.39632092285156 95.95271415201825 19.11551989746094 95.64647538248698Q18.840718872070312 95.33975651041668 18.68039794921875 95.09375651041668Q18.520077026367186 94.84775651041667 18.454196411132813 94.63247538248699Q18.38831579589844 94.4171942545573 18.38831579589844 94.20863199869792Q18.38831579589844 93.79151005045574 18.58223748779297 93.44782840983075Q18.7761591796875 93.10414676920574 19.154881896972654 92.90110569254558Q19.53360461425781 92.69806461588543 20.07648779296875 92.69806461588543Q20.492890869140624 92.69806461588543 20.750052612304685 92.80474497477215Q21.00721435546875 92.91142533365887 21.130335021972655 93.0887860514323Q21.253455688476564 93.26614676920573 21.253455688476564 93.4804676920573Q21.253455688476564 93.62422892252606 21.190575073242186 93.73834958902995Q21.127694458007813 93.85247025553386 21.014893432617185 93.91691056315105Q20.90209240722656 93.98135087076824 20.752331176757814 93.98135087076824Q20.693291381835937 93.98135087076824 20.608571228027344 93.91043046061199Q20.52385107421875 93.83951005045574 20.360890869140626 93.60862943522136Q20.1979306640625 93.37774881998699 20.02429010009766 93.25990799967448Q19.850649536132813 93.14206717936199 19.691768920898436 93.14206717936199Q19.39801025390625 93.14206717936199 19.23457122802734 93.30922635904949Q19.071132202148437 93.47638553873699 19.071132202148437 93.77878348795574Q19.071132202148437 93.91078348795574 19.136892150878907 94.07590287272137Q19.202652099609374 94.24102225748699 19.357812561035153 94.46566153971355Q19.512973022460937 94.69030082194011 19.778174560546876 95.00638041178387Q20.04889599609375 95.31694010416668 20.208016662597657 95.58297989908854Q20.367137329101563 95.84901969401042 20.439857482910156 96.07570005289713Q20.51257763671875 96.30238041178386 20.51257763671875 96.51022123209637Q20.51257763671875 96.94798246256511 20.271376098632814 97.3013842569987Q20.030174560546875 97.6547860514323 19.614731689453123 97.86202738444011Q19.199288818359374 98.06926871744793 18.671044921875 98.06926871744793Q18.21960205078125 98.06926871744793 17.927400512695314 97.94926871744792Q17.635198974609374 97.82926871744793 17.494318359375 97.63654856363934Q17.353437744140624 97.44382840983074 17.353437744140624 97.23094779459636Q17.353437744140624 97.08718656412762 17.422318359374998 96.96982584635418Q17.491198974609375 96.85246512858073 17.61275994873047 96.78454471842448Q17.734320922851563 96.71662430826824 17.889121948242188 96.71662430826824Z"/><path d="M36.248423583984376 90.4281493326823 35.37266491699219 90.12982840983074 35.44010522460938 89.9044676920573H37.87994860839844L37.81250830078125 90.12982840983074L36.888508300781254 90.4281493326823L32.81186645507813 98.05486564127605H32.44272399902344L31.996569946289068 91.06080143229168L32.42400769042969 90.93024430338542L27.56786645507813 98.05486564127605H27.198723999023443L27.679917846679693 90.44351005045574L26.939037231445315 90.12982840983074L27.006477539062505 89.9044676920573H29.854577636718755L29.786657226562504 90.12982840983074L28.708338867187503 90.43054984537761L28.29242358398438 96.56710184733073L27.989784301757815 96.56614164225262L32.55121179199219 89.79406974283856H32.93883435058594L33.385465942382815 96.78597733561199L32.838030761718755 96.9911737467448Z"/><path d="M39.99912963867188 93.11926871744792Q39.6590526123047 93.11926871744792 39.38497430419923 93.32326743570965Q39.11089599609376 93.52726615397137 38.901736816406256 93.86686435953777Q38.69257763671876 94.20646256510418 38.55277789306642 94.61602097574871Q38.41297814941407 95.02557938639323 38.34073809814454 95.44245871988933Q38.26849804687501 95.85933805338543 38.26849804687501 96.21261918131512Q38.26849804687501 96.8282186686198 38.515218200683606 97.08573856608074Q38.761938354492194 97.34325846354167 39.16081896972657 97.34325846354167Q39.435139892578135 97.34325846354167 39.67406030273439 97.24749851481121Q39.912980712890636 97.15173856608074 40.133421020507825 96.91641892496746Q40.35386132812501 96.68109928385418 40.56626184082032 96.25342020670574H40.90706286621094Q40.60778173828126 96.95422379557293 40.30741973876954 97.34986564127605Q40.00705773925782 97.74550748697918 39.65605517578126 97.90738810221356Q39.3050526123047 98.06926871744793 38.841609741210945 98.06926871744793Q38.37144543457032 98.06926871744793 38.02644287109376 97.88626743570964Q37.681440307617194 97.70326615397137 37.49339923095704 97.34590415445965Q37.30535815429688 96.98854215494792 37.30535815429688 96.46846000162762Q37.30535815429688 95.83846000162761 37.45595892333985 95.27062046305339Q37.606559692382824 94.70278092447917 37.879801025390634 94.23490159098307Q38.153042358398444 93.76702225748699 38.5122041015625 93.42214292399089Q38.87136584472657 93.0772635904948 39.294007690429694 92.8876641031901Q39.71664953613282 92.69806461588543 40.16377148437501 92.69806461588543Q40.59961486816407 92.69806461588543 40.872256713867195 92.84530466715495Q41.14489855957032 92.99254471842448 41.27149932861329 93.23146512858074Q41.39810009765626 93.47038553873699 41.39810009765626 93.74566666666668Q41.39810009765626 94.00654728190105 41.287100097656264 94.2634676920573Q41.17610009765626 94.52038810221354 41.00113989257813 94.66966923014324Q40.6536199951172 94.81366923014323 40.30105902099611 94.95166923014324Q39.94849804687501 95.08966923014324 39.590296508789066 95.21842917887372Q39.23209497070313 95.34718912760418 38.872693176269536 95.46898887125653Q38.51329138183595 95.59078861490886 38.152089843750005 95.70286820475262L38.170089843750006 95.26174625651042Q38.74320922851563 95.09734574381511 39.15408856201172 94.93558579508465Q39.56496789550782 94.77382584635417 39.83532733154298 94.61902610270184Q40.105686767578135 94.46422635904949 40.25952630615235 94.30666666666667Q40.41336584472657 94.14910697428387 40.478165588378914 93.99010697428386Q40.54296533203126 93.83110697428387 40.54296533203126 93.66670646158855Q40.54296533203126 93.5006268717448 40.4796058959961 93.38002738444011Q40.416246459960945 93.25942789713542 40.29756738281251 93.18934830729168Q40.178888305664074 93.11926871744792 39.99912963867188 93.11926871744792Z"/><path d="M42.61703979492189 97.69701969401042 44.17271887207032 93.36982584635417 44.3649627685547 93.5219901529948Q44.16048010253907 93.51551005045575 43.9085994873047 93.61678989664715Q43.65671887207032 93.71806974283855 43.391758666992196 93.9089901529948Q43.12679846191407 94.09991056315106 42.87959692382813 94.37663199869793L42.69191528320313 94.19735087076823Q43.107835693359384 93.60454984537762 43.46315789794923 93.27958835856121Q43.81848010253907 92.95462687174481 44.13360333251954 92.82634574381512Q44.448726562500006 92.69806461588543 44.73553015136719 92.69806461588543Q44.99137609863282 92.69806461588543 45.10861743164063 92.79466666666667Q45.22585876464844 92.89126871744793 45.163216918945324 93.07031363932293L43.60753784179688 97.51750748697917L43.48249291992188 97.2674227701823Q43.692495483398446 97.28998246256512 43.9494158935547 97.21126230875652Q44.20633630371095 97.13254215494793 44.485096252441416 96.96214164225262Q44.76385620117188 96.7917411295573 45.03313732910157 96.54549979654949L45.20881896972657 96.74278092447918Q44.78497814941407 97.2434227701823 44.42161614990235 97.5338245646159Q44.05825415039063 97.82422635904949 43.747331176757825 97.9467475382487Q43.43640820312501 98.06926871744793 43.14960461425782 98.06926871744793Q42.79992041015626 98.06926871744793 42.67415917968751 97.97518656412761Q42.54839794921876 97.8811044108073 42.61703979492189 97.69701969401042ZM44.6388035888672 90.17231363932292Q44.6388035888672 89.96927128092449 44.73036456298829 89.80858964029949Q44.82192553710939 89.64790799967449 44.98236712646485 89.554067179362Q45.14280871582032 89.46022635904949 45.35497045898438 89.46022635904949Q45.67345312500001 89.46022635904949 45.87253527832032 89.66386820475262Q46.07161743164063 89.86751005045573 46.07161743164063 90.17231363932292Q46.07161743164063 90.3748758951823 45.98005645751954 90.5355575358073Q45.888495483398444 90.6962391764323 45.72805389404297 90.79032004801434Q45.56761230468751 90.88440091959636 45.35497045898438 90.88440091959636Q45.03696789550782 90.88440091959636 44.83788574218751 90.68027897135417Q44.6388035888672 90.476157023112 44.6388035888672 90.17231363932292Z"/><path d="M51.23738122558595 93.60070902506511Q51.105619995117195 93.60070902506511 51.00925927734376 93.5426281534831Q50.91289855957032 93.48454728190106 50.80849804687501 93.40102610270183Q50.704097534179695 93.31750492350261 50.56273681640626 93.23614420572918Q50.42137609863283 93.15478348795574 50.20861486816408 93.10246384684245Q49.995853637695326 93.05014420572918 49.674251586914075 93.05974625651042L49.550174560546886 92.77102482096355Q50.03473937988282 92.84398502604168 50.37254168701173 92.81806461588542Q50.710343994140636 92.79214420572917 50.9689447631836 92.74174369303387Q51.22754553222657 92.69134318033855 51.473545532226574 92.69134318033855Q51.62954553222657 92.69134318033855 51.70946594238282 92.76382328287761Q51.789386352539076 92.83630338541667 51.789386352539076 92.98222379557292Q51.789386352539076 93.1231044108073 51.74318609619142 93.23542533365887Q51.69698583984376 93.34774625651042 51.619105224609385 93.42958707682293Q51.541224609375014 93.51142789713543 51.44366363525392 93.55606846110027Q51.346102661132825 93.60070902506511 51.23738122558595 93.60070902506511ZM48.25608984375001 96.12238553873699Q48.46416943359376 96.12238553873699 48.66504876708986 96.00886435953777Q48.86592810058595 95.89534318033856 49.04484722900392 95.68738169352216Q49.22376635742189 95.47942020670574 49.35816558837892 95.19585923258464Q49.492564819335946 94.91229825846355 49.57116430664064 94.57197861735027Q49.649763793945326 94.23165897623699 49.649763793945326 93.84862174479167Q49.649763793945326 93.43966410319011 49.50924517822267 93.25894523111981Q49.36872656250001 93.0782263590495 49.11576892089845 93.0782263590495Q48.9076893310547 93.0782263590495 48.70680999755861 93.1917475382487Q48.50593066406251 93.30526871744793 48.327011535644544 93.51323020426433Q48.14809240722657 93.72119169108073 48.01369317626954 94.00475266520183Q47.87929394531251 94.28831363932292 47.800694458007825 94.6286332804362Q47.72209497070314 94.96895292154949 47.72209497070314 95.3519901529948Q47.72209497070314 95.76094779459636 47.862613586425795 95.94166666666668Q48.00313220214845 96.12238553873699 48.25608984375001 96.12238553873699ZM49.18392810058595 92.69806461588543Q49.61713220214845 92.69806461588543 49.91689471435548 92.87470517985028Q50.21665722656251 93.05134574381512 50.3749383544922 93.36514676920575Q50.533219482421885 93.67894779459637 50.533219482421885 94.10470902506512Q50.533219482421885 94.58710953776043 50.348059020996104 95.02090928141277Q50.16289855957032 95.45470902506511 49.8370975341797 95.78854856363932Q49.51129650878907 96.12238810221355 49.08937481689454 96.31246769205731Q48.66745312500001 96.50254728190106 48.18793066406251 96.50254728190106Q47.755206665039076 96.50254728190106 47.455204101562515 96.32590671793622Q47.15520153808595 96.14926615397137 46.996920410156264 95.83246512858074Q46.83863928222657 95.51566410319012 46.83863928222657 95.09590287272137Q46.83863928222657 94.61350236002605 47.023799743652354 94.1797026163737Q47.208960205078135 93.74590287272136 47.53476123046876 93.41206333414715Q47.860562255859385 93.07822379557292 48.28248394775392 92.88814420572918Q48.70440563964845 92.69806461588543 49.18392810058595 92.69806461588543ZM48.011753540039074 101.12446769205731Q47.432151489257826 101.12446769205731 46.97675097656251 101.0344676920573Q46.5213504638672 100.9444676920573 46.204550720214854 100.7689079996745Q45.88775097656251 100.59334830729168 45.722151489257826 100.33642917887371Q45.556552001953136 100.07951005045574 45.556552001953136 99.75119169108073Q45.556552001953136 99.3753534342448 45.804471130371105 99.09407358805339Q46.052390258789075 98.812793741862 46.55339154052736 98.62439322916669Q47.05439282226563 98.43599271647136 47.822639282226575 98.34455240885417H48.34176123046876L48.33792041015626 98.48135087076824Q47.891519897460945 98.50031107584637 47.52900000000001 98.5898309733073Q47.166480102539076 98.67935087076825 46.90716046142579 98.82839066569011Q46.64784082031251 98.97743046061198 46.51104107666016 99.18299015299479Q46.374241333007824 99.38854984537761 46.374241333007824 99.64006974283855Q46.374241333007824 99.97006717936199 46.564801025390636 100.2145062052409Q46.75536071777345 100.4589452311198 47.13036071777345 100.59574497477215Q47.50536071777345 100.73254471842449 48.05568164062501 100.73254471842449Q48.606480102539074 100.73254471842449 48.96035943603516 100.59238553873699Q49.31423876953126 100.45222635904949 49.487038513183606 100.22626743570964Q49.65983825683595 100.0003085123698 49.65983825683595 99.74566923014324Q49.65983825683595 99.5116717936198 49.54391912841798 99.33359348551433Q49.42800000000001 99.15551517740886 49.18956097412111 99.01607615152996Q48.951121948242196 98.87663712565106 48.59028240966798 98.7502776896159Q48.22944287109376 98.62391825358074 47.744641845703136 98.487838663737Q47.303997436523446 98.36591825358074 47.06855456542969 98.18951774088544Q46.83311169433595 98.01311722819011 46.74587036132814 97.81259604899088Q46.65862902832033 97.61207486979167 46.65862902832033 97.4095126139323Q46.65862902832033 97.14862943522137 46.80731066894533 96.92902738444012Q46.95599230957033 96.70942533365887 47.24111553955079 96.53878476969402Q47.52623876953126 96.36814420572918 47.92224389648439 96.26686564127606L48.178082153320325 96.39526615397136Q47.79816174316407 96.45046512858075 47.604842102050796 96.61102482096356Q47.41152246093751 96.77158451334637 47.41152246093751 96.96214420572917Q47.41152246093751 97.05622379557293 47.457482666015636 97.14730338541668Q47.50344287109376 97.23838297526042 47.6268035888672 97.33222251383464Q47.750164306640634 97.42606205240887 47.983925537109386 97.52890159098308Q48.21768676757814 97.6317411295573 48.58776892089845 97.75486051432293Q49.31641076660157 97.99365897623699 49.72669189453126 98.2479388224284Q50.13697302246095 98.5022186686198 50.301613586425795 98.79189902750653Q50.46625415039064 99.08157938639324 50.46625415039064 99.44613907877606Q50.46625415039064 99.80926102701824 50.29573297119142 100.11670261637371Q50.1252117919922 100.42414420572918 49.80444927978517 100.64842533365886Q49.483686767578135 100.87270646158855 49.03044287109376 100.99858707682293Q48.57719897460939 101.12446769205731 48.011753540039074 101.12446769205731Z"/><path d="M53.174415893554695 96.5695126139323 52.76113732910157 97.9444676920573H51.86951733398438L54.149034667968756 90.38159733072918Q54.041514770507824 90.27623661295574 53.93831451416017 90.19211594645184Q53.835114257812506 90.10799527994793 53.711394104003915 90.03539451090495Q53.587673950195324 89.96279374186199 53.41415405273438 89.8975126139323L53.466474975585946 89.7321493326823L55.186097534179694 89.42566666666667H55.331779174804694L53.58408984375001 95.09016215006511L53.50608984375001 95.06519938151042Q53.770572509765636 94.59239066569012 54.07249420166016 94.16782712809245Q54.3744158935547 93.7432635904948 54.70249676513673 93.41710312906902Q55.03057763671876 93.09094266764323 55.38277789306642 92.90278348795573Q55.73497814941407 92.71462430826824 56.094978149414075 92.71462430826824Q56.606421020507824 92.71462430826824 56.803342712402355 92.93362559000653Q57.000264404296885 93.1526268717448 57.000264404296885 93.50326871744792Q57.000264404296885 93.6981493326823 56.94026440429688 93.93767051188152Q56.88026440429688 94.17719169108074 56.77538378906251 94.45391312662761L55.59794604492188 97.51750748697917L55.583540405273446 97.27102225748699Q55.790662353515636 97.27054215494793 56.03330291748048 97.18510184733074Q56.275943481445324 97.09966153971355 56.53634399414064 96.93334061686198Q56.79674450683595 96.76701969401043 57.04538635253907 96.53541764322918L57.23210778808595 96.72669877115887Q56.80730676269532 97.23166153971356 56.440704711914066 97.52698374430341Q56.07410266113282 97.82230594889324 55.75993963623048 97.94578733317059Q55.445776611328135 98.06926871744793 55.15849291992188 98.06926871744793Q54.753609741210944 98.06926871744793 54.660967895507824 97.9503470255534Q54.568326049804696 97.83142533365887 54.70320666503907 97.4872635904948L55.94376123046876 94.28303763834636Q55.99608215332032 94.14551517740887 56.02980230712892 94.02383481852215Q56.063522460937506 93.90215445963543 56.063522460937506 93.8006345621745Q56.063522460937506 93.6530350748698 55.97016302490235 93.56423533121746Q55.8768035888672 93.47543558756512 55.633925537109384 93.47543558756512Q55.35456738281251 93.47543558756512 55.01088958740235 93.71399399820965Q54.667211791992194 93.95255240885417 54.31885363769532 94.37711081949871Q53.970495483398444 94.80166923014323 53.67085620117189 95.36290928141277Q53.37121691894532 95.9241493326823 53.174415893554695 96.5695126139323Z"/><path d="M58.97255712890626 93.31678861490886 59.08151733398439 92.82286564127605H62.14346337890626L62.04506286621095 93.31678861490886ZM59.927545532226574 96.5747655436198Q59.895383789062514 96.68877067057292 59.87402307128907 96.77529313151042Q59.85266235351563 96.86181559244793 59.84318225097657 96.92613651529949Q59.83370214843751 96.99045743815105 59.83370214843751 97.04085795084636Q59.83370214843751 97.13925846354168 59.8711424560547 97.18725846354168Q59.90858276367189 97.23525846354168 59.971463378906265 97.23525846354168Q60.096023071289075 97.23525846354168 60.3120217895508 97.09029954020184Q60.52802050781251 96.94534061686198 60.792739379882825 96.68290159098308Q61.057458251953136 96.42046256510417 61.32889855957033 96.06094266764325L61.5756199951172 96.22462430826823Q61.307537841796886 96.64438810221355 61.037895996093766 96.98038938395183Q60.76825415039064 97.31639066569011 60.50857250976564 97.55843046061199Q60.24889086914064 97.80047025553387 60.00444927978516 97.92934958902995Q59.760007690429696 98.05822892252606 59.53128625488282 98.05822892252606Q59.26032348632813 98.05822892252606 59.0964017944336 97.90174753824871Q58.932480102539074 97.74526615397136 58.932480102539074 97.35862174479168Q58.932480102539074 97.19038041178386 58.969080871582044 96.96297733561198Q59.00568164062501 96.73557425944011 59.089922973632824 96.4478104654948L60.413283691406264 91.74813907877605H61.32122460937501Z"/><path d="M61.81007958984377 99.74326871744793Q62.390159179687515 99.40102738444011 62.71043902587892 99.11038682047527Q63.030718872070324 98.81974625651043 63.159238769531264 98.5735062052409Q63.287758666992204 98.32726615397137 63.287758666992204 98.12374625651043Q63.287758666992204 97.95838553873699 63.209038513183614 97.84726487223308Q63.13031835937502 97.73614420572918 63.02459820556642 97.64950364176434Q62.91887805175783 97.56286307779949 62.84015789794923 97.49074241129559Q62.761437744140636 97.41862174479168 62.761437744140636 97.3377411295573Q62.761437744140636 97.10901969401043 62.86643902587892 96.93105820719401Q62.9714403076172 96.75309672037761 63.15936199951173 96.64953574625652Q63.34728369140626 96.54597477213542 63.59904492187501 96.54597477213542Q63.89040820312501 96.54597477213542 64.08192938232423 96.73569620768231Q64.27345056152345 96.92541764322918 64.27345056152345 97.27846000162761Q64.27345056152345 97.59142020670573 64.16845056152346 97.91086051432293Q64.06345056152345 98.23030082194012 63.81132989501955 98.56510184733074Q63.55920922851564 98.89990287272137 63.11580743408204 99.27250492350262Q62.67240563964845 99.64510697428386 61.989602050781265 100.06439066569011Z"/><path d="M73.10400000000001 90.73342533365886 70.6267214355469 97.43110441080731 71.45544030761721 97.7126268717448 71.38248010253908 97.9444676920573H69.02831579589845L69.10127600097658 97.7126268717448L70.07759692382814 97.4145447184245L72.67967395019534 90.48551005045574L71.81687548828127 90.13534830729168L71.88935559082033 89.9044676920573H73.90898071289064L74.63641333007814 96.96886051432293L74.27256738281253 96.99334574381511L79.38407702636721 89.9044676920573H79.87464184570314L79.86936071777346 90.08782840983073L74.10409240722657 98.04934574381511H73.7529499511719L72.97919641113283 90.78382840983073ZM79.48343774414064 89.9044676920573H81.39433886718751L81.32185876464845 90.13534830729168L80.33450061035158 90.45070902506511L78.70562255859377 97.43974625651043L79.5290603027344 97.71358707682293L79.45658020019533 97.9444676920573H76.64664184570314L76.7191219482422 97.71358707682293L77.68440051269533 97.42030594889324Z"/><path d="M84.51720922851564 92.69806461588543Q85.01929394531251 92.69806461588543 85.3772567138672 92.91034574381511Q85.73521948242188 93.1226268717448 85.92950061035157 93.52054856363932Q86.12378173828127 93.91847025553386 86.12378173828127 94.4836717936198Q86.12378173828127 95.18855240885418 85.90622076416017 95.83187204996746Q85.68865979003907 96.47519169108074 85.30273809814454 96.97859092203777Q84.91681640625 97.4819901529948 84.40069445800782 97.77562943522136Q83.88457250976563 98.06926871744793 83.28145056152344 98.06926871744793Q82.78488574218751 98.06926871744793 82.42416302490236 97.85698758951824Q82.0634403076172 97.64470646158856 81.86915917968751 97.24402482096355Q81.67487805175783 96.84334318033855 81.67487805175783 96.28366153971355Q81.67487805175783 95.57878092447918 81.89243902587893 94.9354612833659Q82.11000000000001 94.29214164225262 82.49592169189455 93.78874241129559Q82.88184338378908 93.28534318033856 83.39796533203126 92.991703898112Q83.91408728027345 92.69806461588543 84.51720922851564 92.69806461588543ZM83.29105004882814 97.64806461588543Q83.58792810058596 97.64806461588543 83.86740692138673 97.44286435953777Q84.14688574218751 97.23766410319011 84.3867650756836 96.88474369303387Q84.6266444091797 96.53182328287761 84.80820410156252 96.0854227701823Q84.98976379394533 95.63902225748699 85.0915237426758 95.15110184733074Q85.19328369140626 94.66318143717449 85.19328369140626 94.1937411295573Q85.19328369140626 93.63766410319012 85.02852502441408 93.37846641031902Q84.86376635742188 93.11926871744792 84.50760974121096 93.11926871744792Q84.21073168945314 93.11926871744792 83.93125286865236 93.32446897379558Q83.65177404785157 93.52966923014324 83.41189471435548 93.8825896402995Q83.17201538085939 94.23551005045574 82.99045568847657 94.68191056315106Q82.80889599609377 95.12831107584637 82.70713604736329 95.61623148600262Q82.60537609863283 96.10415189615887 82.60537609863283 96.57359220377606Q82.60537609863283 97.12414933268231 82.77013476562502 97.38610697428388Q82.9348934326172 97.64806461588543 83.29105004882814 97.64806461588543Z"/><path d="M89.08895764160157 93.49343302408855Q89.06495764160157 93.49343302408855 89.04395764160157 93.49343302408855Q89.02295764160156 93.49343302408855 88.99895764160156 93.49343302408855Q88.78103723144532 93.49343302408855 88.57943774414063 93.57623276774089Q88.37783825683594 93.65903251139324 88.17671887207032 93.87299271647136Q87.97559948730469 94.08695292154948 87.75815917968751 94.48367435709636L87.53111682128907 94.38983353678387Q87.77903723144532 93.7379901529948 88.07483825683595 93.37186820475262Q88.37063928222658 93.00574625651042 88.7032811279297 92.85490543619792Q89.03592297363282 92.70406461588543 89.37528625488282 92.70406461588543Q89.4998485107422 92.70406461588543 89.61708984375001 92.71882456461589Q89.73433117675782 92.73358451334636 89.85181256103516 92.7578245646159Q89.96929394531251 92.78206461588543 90.08785620117189 92.81902482096355L89.44777148437501 94.92264481608073L89.4139306640625 94.90920194498699Q89.79601281738282 94.14071415201823 90.15481512451173 93.65243046061198Q90.51361743164064 93.16414676920574 90.86953912353516 92.93110569254559Q91.2254608154297 92.69806461588543 91.58834143066407 92.69806461588543Q91.94090368652344 92.69806461588543 92.10662512207031 92.87026615397136Q92.2723465576172 93.0424676920573 92.2723465576172 93.31343046061198Q92.2723465576172 93.51455240885417 92.17202563476563 93.67199399820964Q92.07170471191407 93.82943558756511 91.9082631225586 93.91799656168621Q91.74482153320314 94.0065575358073 91.54969958496095 94.0065575358073Q91.49785876464844 94.0065575358073 91.44241845703127 93.95963712565106Q91.38697814941408 93.9127167154948 91.30657763671876 93.79535599772136Q91.22617712402345 93.672475382487 91.1515365600586 93.61199527994793Q91.07689599609375 93.55151517740886 90.97801538085939 93.55151517740886Q90.82849548339844 93.55151517740886 90.64093579101564 93.68987461344402Q90.45337609863282 93.82823404947918 90.25081640625001 94.08107358805339Q90.04825671386719 94.3339131266276 89.8449768676758 94.68539322916666Q89.64169702148439 95.03687333170573 89.45473681640627 95.46563456217449Q89.26777661132813 95.89439579264324 89.11993579101564 96.38183866373699L88.64425927734376 97.9444676920573H87.74063928222657Z"/><path d="M95.53512963867189 93.11926871744792Q95.19505261230469 93.11926871744792 94.92097430419923 93.32326743570965Q94.64689599609376 93.52726615397137 94.43773681640626 93.86686435953777Q94.22857763671875 94.20646256510418 94.0887778930664 94.61602097574871Q93.94897814941407 95.02557938639323 93.87673809814454 95.44245871988933Q93.80449804687501 95.85933805338543 93.80449804687501 96.21261918131512Q93.80449804687501 96.8282186686198 94.0512182006836 97.08573856608074Q94.2979383544922 97.34325846354167 94.69681896972658 97.34325846354167Q94.97113989257814 97.34325846354167 95.21006030273438 97.24749851481121Q95.44898071289063 97.15173856608074 95.66942102050783 96.91641892496746Q95.88986132812501 96.68109928385418 96.10226184082032 96.25342020670574H96.44306286621095Q96.14378173828126 96.95422379557293 95.84341973876954 97.34986564127605Q95.54305773925782 97.74550748697918 95.19205517578126 97.90738810221356Q94.8410526123047 98.06926871744793 94.37760974121095 98.06926871744793Q93.90744543457032 98.06926871744793 93.56244287109377 97.88626743570964Q93.2174403076172 97.70326615397137 93.02939923095704 97.34590415445965Q92.84135815429688 96.98854215494792 92.84135815429688 96.46846000162762Q92.84135815429688 95.83846000162761 92.99195892333985 95.27062046305339Q93.14255969238282 94.70278092447917 93.41580102539064 94.23490159098307Q93.68904235839845 93.76702225748699 94.0482041015625 93.42214292399089Q94.40736584472657 93.0772635904948 94.8300076904297 92.8876641031901Q95.25264953613282 92.69806461588543 95.699771484375 92.69806461588543Q96.13561486816407 92.69806461588543 96.40825671386719 92.84530466715495Q96.68089855957032 92.99254471842448 96.80749932861329 93.23146512858074Q96.93410009765626 93.47038553873699 96.93410009765626 93.74566666666668Q96.93410009765626 94.00654728190105 96.82310009765627 94.2634676920573Q96.71210009765626 94.52038810221354 96.53713989257814 94.66966923014324Q96.1896199951172 94.81366923014323 95.8370590209961 94.95166923014324Q95.484498046875 95.08966923014324 95.12629650878907 95.21842917887372Q94.76809497070313 95.34718912760418 94.40869317626954 95.46898887125653Q94.04929138183594 95.59078861490886 93.68808984375 95.70286820475262L93.70608984375001 95.26174625651042Q94.27920922851564 95.09734574381511 94.69008856201174 94.93558579508465Q95.10096789550782 94.77382584635417 95.37132733154297 94.61902610270184Q95.64168676757814 94.46422635904949 95.79552630615235 94.30666666666667Q95.94936584472657 94.14910697428387 96.01416558837892 93.99010697428386Q96.07896533203126 93.83110697428387 96.07896533203126 93.66670646158855Q96.07896533203126 93.5006268717448 96.0156058959961 93.38002738444011Q95.95224645996095 93.25942789713542 95.8335673828125 93.18934830729168Q95.71488830566408 93.11926871744792 95.53512963867189 93.11926871744792Z"/><path d="M104.802 90.73342533365886 102.32472143554689 97.43110441080731 103.1534403076172 97.7126268717448 103.08048010253907 97.9444676920573H100.72631579589844L100.79927600097658 97.7126268717448L101.77559692382813 97.4145447184245L104.37767395019533 90.48551005045574L103.51487548828126 90.13534830729168L103.58735559082032 89.9044676920573H105.60698071289063L106.33441333007814 96.96886051432293L105.9705673828125 96.99334574381511L111.0820770263672 89.9044676920573H111.57264184570313L111.56736071777345 90.08782840983073L105.80209240722658 98.04934574381511H105.45094995117189L104.67719641113283 90.78382840983073ZM111.18143774414064 89.9044676920573H113.09233886718751L113.01985876464845 90.13534830729168L112.03250061035158 90.45070902506511L110.40362255859377 97.43974625651043L111.22706030273439 97.71358707682293L111.15458020019533 97.9444676920573H108.34464184570314L108.4171219482422 97.71358707682293L109.38240051269533 97.42030594889324Z"/><path d="M116.21520922851565 92.69806461588543Q116.71729394531252 92.69806461588543 117.0752567138672 92.91034574381511Q117.43321948242189 93.1226268717448 117.62750061035158 93.52054856363932Q117.82178173828127 93.91847025553386 117.82178173828127 94.4836717936198Q117.82178173828127 95.18855240885418 117.60422076416017 95.83187204996746Q117.38665979003908 96.47519169108074 117.00073809814455 96.97859092203777Q116.61481640625001 97.4819901529948 116.09869445800783 97.77562943522136Q115.58257250976564 98.06926871744793 114.97945056152345 98.06926871744793Q114.48288574218752 98.06926871744793 114.12216302490236 97.85698758951824Q113.7614403076172 97.64470646158856 113.56715917968752 97.24402482096355Q113.37287805175784 96.84334318033855 113.37287805175784 96.28366153971355Q113.37287805175784 95.57878092447918 113.59043902587894 94.9354612833659Q113.80800000000002 94.29214164225262 114.19392169189456 93.78874241129559Q114.57984338378908 93.28534318033856 115.09596533203127 92.991703898112Q115.61208728027346 92.69806461588543 116.21520922851565 92.69806461588543ZM114.98905004882815 97.64806461588543Q115.28592810058596 97.64806461588543 115.56540692138674 97.44286435953777Q115.84488574218751 97.23766410319011 116.0847650756836 96.88474369303387Q116.32464440917971 96.53182328287761 116.50620410156253 96.0854227701823Q116.68776379394534 95.63902225748699 116.78952374267581 95.15110184733074Q116.89128369140627 94.66318143717449 116.89128369140627 94.1937411295573Q116.89128369140627 93.63766410319012 116.72652502441409 93.37846641031902Q116.56176635742189 93.11926871744792 116.20560974121096 93.11926871744792Q115.90873168945315 93.11926871744792 115.62925286865237 93.32446897379558Q115.34977404785158 93.52966923014324 115.10989471435549 93.8825896402995Q114.8700153808594 94.23551005045574 114.68845568847658 94.68191056315106Q114.50689599609377 95.12831107584637 114.4051360473633 95.61623148600262Q114.30337609863284 96.10415189615887 114.30337609863284 96.57359220377606Q114.30337609863284 97.12414933268231 114.46813476562502 97.38610697428388Q114.63289343261721 97.64806461588543 114.98905004882815 97.64806461588543Z"/><path d="M125.81835424804689 97.51750748697917 125.80394860839846 97.27102225748699Q126.01107055664065 97.27054215494793 126.25371112060549 97.18510184733074Q126.49635168457033 97.09966153971355 126.75675219726564 96.93334061686198Q127.01715270996095 96.76701969401043 127.26579455566407 96.53541764322918L127.45251599121096 96.72669877115887Q127.02771496582032 97.23166153971356 126.66111291503907 97.52698374430341Q126.29451086425783 97.82230594889324 125.98034783935549 97.94578733317059Q125.66618481445315 98.06926871744793 125.37890112304689 98.06926871744793Q124.97401794433596 98.06926871744793 124.88137609863283 97.9503470255534Q124.7887342529297 97.83142533365887 124.92361486816408 97.4872635904948L126.1696893310547 94.26095804850262Q126.22201025390626 94.12343558756511 126.25021051025392 94.01279502360026Q126.27841076660158 93.90215445963543 126.27841076660158 93.80615445963542Q126.27841076660158 93.6530350748698 126.18577148437501 93.56699527994792Q126.09313220214845 93.48095548502604 125.86225415039064 93.48095548502604Q125.60281640625001 93.48095548502604 125.29489855957033 93.6957539469401Q124.98698071289064 93.91055240885417 124.67018225097658 94.30079117838542Q124.35338378906252 94.69102994791668 124.0645442504883 95.22239066569011Q123.77570471191407 95.75375138346355 123.55490368652346 96.38183610026043L123.06338635253908 97.9444676920573H122.14440563964845L123.3549627685547 94.25279630533855Q123.38736328125002 94.16159476725261 123.40908343505862 94.08071415201823Q123.4308035888672 93.99983353678387 123.4428035888672 93.93059348551434Q123.45480358886721 93.8613534342448 123.45480358886721 93.80279374186199Q123.45480358886721 93.64967435709636 123.36396405029299 93.56555497233074Q123.27312451171876 93.48143558756512 123.05424645996095 93.48143558756512Q122.7772888183594 93.48143558756512 122.46133117675782 93.71471415201825Q122.14537353515627 93.94799271647136 121.83253527832034 94.36727128092448Q121.51969702148439 94.7865498453776 121.24129779052737 95.35030979410809Q120.96289855957033 95.91406974283855 120.76057763671876 96.5695126139323L120.34129907226564 97.9444676920573H119.43863928222657L120.78695764160157 93.49343302408855Q120.76295764160157 93.49343302408855 120.74195764160157 93.49343302408855Q120.72095764160157 93.49343302408855 120.69695764160157 93.49343302408855Q120.47903723144533 93.49343302408855 120.27743774414064 93.57623276774089Q120.07583825683595 93.65903251139324 119.87471887207033 93.87299271647136Q119.6735994873047 94.08695292154948 119.45615917968752 94.48367435709636L119.22911682128908 94.38983353678387Q119.47703723144532 93.7379901529948 119.77283825683595 93.37186820475262Q120.06863928222658 93.00574625651042 120.4012811279297 92.85490543619792Q120.73392297363283 92.70406461588543 121.07328625488283 92.70406461588543Q121.19736840820315 92.70406461588543 121.31436968994143 92.71882456461589Q121.4313709716797 92.73358451334636 121.54837225341798 92.7578245646159Q121.66537353515626 92.78206461588543 121.78345568847658 92.81902482096355L121.09369189453126 95.07168204752605L121.0512117919922 95.0582391764323Q121.44529138183596 94.35959476725262 121.77517199707033 93.8993919474284Q122.1050526123047 93.43918912760418 122.39857379150392 93.17674753824872Q122.69209497070314 92.91430594889324 122.96281640625001 92.80618528238934Q123.23353784179689 92.69806461588543 123.50329907226563 92.69806461588543Q123.98473937988283 92.69806461588543 124.18706030273438 92.88034574381511Q124.38938122558595 93.0626268717448 124.38938122558595 93.36814933268231Q124.38938122558595 93.56038810221355 124.32698199462892 93.81202610270184Q124.2645827636719 94.06366410319012 124.16138378906251 94.39630082194012L124.0358562011719 94.81944840494792H123.97969445800783Q124.32001538085939 94.2199208170573 124.62877661132814 93.81107615152996Q124.9375378417969 93.40223148600262 125.2264993286133 93.15670902506511Q125.5154608154297 92.91118656412762 125.79110266113284 92.80186564127605Q126.06674450683596 92.69254471842449 126.33530676269532 92.69254471842449Q126.82826953125002 92.69254471842449 127.02723101806643 92.88394651285807Q127.22619250488283 93.07534830729168 127.22619250488283 93.40391056315106Q127.22619250488283 93.60431107584637 127.16343255615236 93.86591184488933Q127.10067260742188 94.1275126139323 126.97371240234376 94.46495292154948Z"/><path d="M131.4751296386719 93.11926871744792Q131.1350526123047 93.11926871744792 130.8609743041992 93.32326743570965Q130.58689599609374 93.52726615397137 130.37773681640624 93.86686435953777Q130.16857763671877 94.20646256510418 130.02877789306643 94.61602097574871Q129.88897814941407 95.02557938639323 129.81673809814453 95.44245871988933Q129.744498046875 95.85933805338543 129.744498046875 96.21261918131512Q129.744498046875 96.8282186686198 129.9912182006836 97.08573856608074Q130.2379383544922 97.34325846354167 130.63681896972656 97.34325846354167Q130.91113989257812 97.34325846354167 131.15006030273437 97.24749851481121Q131.38898071289063 97.15173856608074 131.60942102050782 96.91641892496746Q131.82986132812502 96.68109928385418 132.04226184082032 96.25342020670574H132.38306286621093Q132.08378173828126 96.95422379557293 131.78341973876954 97.34986564127605Q131.48305773925782 97.74550748697918 131.13205517578126 97.90738810221356Q130.7810526123047 98.06926871744793 130.31760974121096 98.06926871744793Q129.84744543457032 98.06926871744793 129.50244287109376 97.88626743570964Q129.1574403076172 97.70326615397137 128.96939923095704 97.34590415445965Q128.7813581542969 96.98854215494792 128.7813581542969 96.46846000162762Q128.7813581542969 95.83846000162761 128.93195892333986 95.27062046305339Q129.08255969238283 94.70278092447917 129.35580102539063 94.23490159098307Q129.62904235839844 93.76702225748699 129.9882041015625 93.42214292399089Q130.34736584472657 93.0772635904948 130.77000769042968 92.8876641031901Q131.19264953613282 92.69806461588543 131.63977148437502 92.69806461588543Q132.07561486816408 92.69806461588543 132.34825671386722 92.84530466715495Q132.62089855957032 92.99254471842448 132.7474993286133 93.23146512858074Q132.87410009765625 93.47038553873699 132.87410009765625 93.74566666666668Q132.87410009765625 94.00654728190105 132.76310009765626 94.2634676920573Q132.65210009765624 94.52038810221354 132.47713989257812 94.66966923014324Q132.1296199951172 94.81366923014323 131.7770590209961 94.95166923014324Q131.42449804687502 95.08966923014324 131.0662965087891 95.21842917887372Q130.70809497070314 95.34718912760418 130.34869317626953 95.46898887125653Q129.98929138183595 95.59078861490886 129.62808984375002 95.70286820475262L129.64608984375002 95.26174625651042Q130.21920922851564 95.09734574381511 130.63008856201174 94.93558579508465Q131.04096789550783 94.77382584635417 131.311327331543 94.61902610270184Q131.58168676757813 94.46422635904949 131.73552630615234 94.30666666666667Q131.88936584472657 94.14910697428387 131.9541655883789 93.99010697428386Q132.01896533203126 93.83110697428387 132.01896533203126 93.66670646158855Q132.01896533203126 93.5006268717448 131.9556058959961 93.38002738444011Q131.89224645996094 93.25942789713542 131.7735673828125 93.18934830729168Q131.65488830566406 93.11926871744792 131.4751296386719 93.11926871744792Z"/><path d="M134.2521591796875 94.48367435709636 134.02511682128906 94.38983353678387Q134.27303723144533 93.7379901529948 134.56883825683593 93.37186820475262Q134.86463928222656 93.00574625651042 135.19728112792967 92.85490543619792Q135.5299229736328 92.70406461588543 135.8692862548828 92.70406461588543Q135.9938485107422 92.70406461588543 136.11108984375 92.71882456461589Q136.22833117675782 92.73358451334636 136.34581256103516 92.7578245646159Q136.4632939453125 92.78206461588543 136.5818562011719 92.81902482096355L135.84793322753907 95.2262391764323L135.81097302246096 95.21423661295574Q136.08649548339844 94.7083085123698 136.39669702148439 94.25614548746745Q136.70689855957033 93.80398246256512 137.04601922607424 93.45850236002605Q137.38513989257814 93.11302225748699 137.74561999511718 92.91382328287762Q138.10610009765625 92.71462430826824 138.47713989257812 92.71462430826824Q138.98858276367187 92.71462430826824 139.1855044555664 92.93362559000653Q139.38242614746093 93.1526268717448 139.38242614746093 93.50326871744792Q139.38242614746093 93.6981493326823 139.32242614746093 93.93767051188152Q139.26242614746096 94.17719169108074 139.15754553222658 94.45391312662761L137.98010778808595 97.51750748697917L137.96570214843752 97.27102225748699Q138.1728240966797 97.27054215494793 138.41546466064455 97.18510184733074Q138.6581052246094 97.09966153971355 138.9185057373047 96.93334061686198Q139.17890625 96.76701969401043 139.42754809570314 96.53541764322918L139.61426953125002 96.72669877115887Q139.1894685058594 97.23166153971356 138.82286645507816 97.52698374430341Q138.4562644042969 97.82230594889324 138.14210137939455 97.94578733317059Q137.8279383544922 98.06926871744793 137.54065466308595 98.06926871744793Q137.135771484375 98.06926871744793 137.04312963867187 97.9503470255534Q136.95048779296874 97.83142533365887 137.08536840820312 97.4872635904948L138.32592297363283 94.28303763834636Q138.37824389648438 94.14551517740887 138.41196405029297 94.02383481852215Q138.44568420410158 93.90215445963543 138.44568420410158 93.8006345621745Q138.44568420410158 93.6530350748698 138.3523247680664 93.56423533121746Q138.25896533203127 93.47543558756512 138.01608728027344 93.47543558756512Q137.73672912597658 93.47543558756512 137.39329138183595 93.71399399820965Q137.04985363769532 93.95255240885417 136.7012554321289 94.37711081949871Q136.3526572265625 94.80166923014323 136.05301794433595 95.36290928141277Q135.75337866210938 95.9241493326823 135.55657763671877 96.5695126139323L135.13729907226562 97.9444676920573H134.23463928222657L135.58295764160158 93.49343302408855Q135.55895764160158 93.49343302408855 135.53795764160157 93.49343302408855Q135.51695764160158 93.49343302408855 135.49295764160158 93.49343302408855Q135.2750372314453 93.49343302408855 135.07343774414062 93.57623276774089Q134.87183825683596 93.65903251139324 134.67071887207032 93.87299271647136Q134.4695994873047 94.08695292154948 134.2521591796875 94.48367435709636Z"/><path d="M141.35255712890626 93.31678861490886 141.46151733398438 92.82286564127605H144.52346337890626L144.42506286621096 93.31678861490886ZM142.30754553222658 96.5747655436198Q142.27538378906252 96.68877067057292 142.25402307128908 96.77529313151042Q142.23266235351565 96.86181559244793 142.22318225097658 96.92613651529949Q142.2137021484375 96.99045743815105 142.2137021484375 97.04085795084636Q142.2137021484375 97.13925846354168 142.2511424560547 97.18725846354168Q142.28858276367188 97.23525846354168 142.35146337890626 97.23525846354168Q142.47602307128906 97.23525846354168 142.69202178955078 97.09029954020184Q142.90802050781252 96.94534061686198 143.17273937988284 96.68290159098308Q143.43745825195313 96.42046256510417 143.70889855957032 96.06094266764325L143.9556199951172 96.22462430826823Q143.68753784179688 96.64438810221355 143.41789599609376 96.98038938395183Q143.14825415039064 97.31639066569011 142.88857250976565 97.55843046061199Q142.62889086914063 97.80047025553387 142.38444927978517 97.92934958902995Q142.1400076904297 98.05822892252606 141.91128625488284 98.05822892252606Q141.64032348632813 98.05822892252606 141.4764017944336 97.90174753824871Q141.31248010253907 97.74526615397136 141.31248010253907 97.35862174479168Q141.31248010253907 97.19038041178386 141.34908087158203 96.96297733561198Q141.38568164062502 96.73557425944011 141.46992297363283 96.4478104654948L142.79328369140626 91.74813907877605H143.701224609375Z"/><path d="M148.30201025390625 97.70662174479168 148.96129138183593 95.546614054362 149.01529394531252 95.56005692545574Q148.58089599609377 96.3345370279948 148.22605645751955 96.8289388224284Q147.87121691894532 97.32334061686198 147.56689599609376 97.59214292399089Q147.2625750732422 97.8609452311198 146.9880128173828 97.96510697428386Q146.71345056152344 98.06926871744793 146.43408728027345 98.06926871744793Q146.00184338378907 98.06926871744793 145.80840179443362 97.87510697428387Q145.61496020507815 97.68094523111981 145.61496020507815 97.35238297526043Q145.61496020507815 97.15750236002606 145.67820025634768 96.89614164225262Q145.7414403076172 96.63478092447917 145.8674403076172 96.30238041178386L147.00455712890627 93.24982584635417L147.17832092285158 93.51647025553386Q146.96231835937502 93.50447025553386 146.6936380004883 93.6029901529948Q146.42495764160157 93.70151005045574 146.1431976928711 93.89771030680339Q145.86143774414063 94.09391056315106 145.59215661621096 94.37615189615886L145.38791528320314 94.19135087076823Q145.80935559082033 93.62062943522136 146.17523748779297 93.29590799967448Q146.54111938476564 92.97118656412762 146.87232220458986 92.83462559000652Q147.20352502441406 92.69806461588543 147.50688830566406 92.69806461588543Q147.78481384277345 92.69806461588543 147.90733502197267 92.79466666666667Q148.0298562011719 92.89126871744793 147.96217456054688 93.07031363932293L146.66810266113282 96.5615742594401Q146.62178173828127 96.69957682291668 146.59334143066408 96.80721738688152Q146.5649011230469 96.91485795084637 146.5649011230469 96.99981815592449Q146.5649011230469 97.13589774576823 146.64890112304687 97.21113779703776Q146.73290112304687 97.2863778483073 146.92058020019533 97.2863778483073Q147.16441845703125 97.2863778483073 147.47845568847657 97.06473984781903Q147.7924929199219 96.84310184733074 148.1178099975586 96.4412250773112Q148.44312707519532 96.03934830729168 148.73484466552736 95.48987204996746Q149.02656225585937 94.94039579264324 149.22576123046875 94.28471927897137L149.6719255371094 92.82286564127605H150.57458532714844L149.16674450683595 97.46782840983074L149.1477791748047 97.26502225748699Q149.3520205078125 97.28518143717449 149.60750061035156 97.20526102701824Q149.86298071289065 97.12534061686199 150.14198071289064 96.95397989908855Q150.42098071289064 96.78261918131511 150.68978173828125 96.533977335612L150.86642358398439 96.72981815592449Q150.23234399414065 97.4891814371745 149.73710009765625 97.77922507731121Q149.24185620117188 98.06926871744793 148.82641333007814 98.06926871744793Q148.48489086914063 98.06926871744793 148.36680999755862 97.98154728190104Q148.24872912597658 97.89382584635418 148.30201025390625 97.70662174479168Z"/><path d="M158.54835424804688 97.51750748697917 158.53394860839845 97.27102225748699Q158.74107055664064 97.27054215494793 158.98371112060548 97.18510184733074Q159.22635168457032 97.09966153971355 159.48675219726562 96.93334061686198Q159.74715270996094 96.76701969401043 159.99579455566408 96.53541764322918L160.18251599121095 96.72669877115887Q159.75771496582033 97.23166153971356 159.39111291503906 97.52698374430341Q159.02451086425782 97.82230594889324 158.71034783935548 97.94578733317059Q158.39618481445314 98.06926871744793 158.10890112304688 98.06926871744793Q157.70401794433593 98.06926871744793 157.61137609863283 97.9503470255534Q157.5187342529297 97.83142533365887 157.65361486816406 97.4872635904948L158.8996893310547 94.26095804850262Q158.95201025390625 94.12343558756511 158.98021051025393 94.01279502360026Q159.00841076660157 93.90215445963543 159.00841076660157 93.80615445963542Q159.00841076660157 93.6530350748698 158.915771484375 93.56699527994792Q158.82313220214843 93.48095548502604 158.59225415039063 93.48095548502604Q158.33281640625 93.48095548502604 158.02489855957032 93.6957539469401Q157.71698071289063 93.91055240885417 157.40018225097657 94.30079117838542Q157.0833837890625 94.69102994791668 156.7945442504883 95.22239066569011Q156.50570471191406 95.75375138346355 156.28490368652345 96.38183610026043L155.79338635253907 97.9444676920573H154.87440563964844L156.0849627685547 94.25279630533855Q156.11736328125 94.16159476725261 156.13908343505858 94.08071415201823Q156.1608035888672 93.99983353678387 156.1728035888672 93.93059348551434Q156.1848035888672 93.8613534342448 156.1848035888672 93.80279374186199Q156.1848035888672 93.64967435709636 156.09396405029298 93.56555497233074Q156.00312451171877 93.48143558756512 155.78424645996094 93.48143558756512Q155.50728881835937 93.48143558756512 155.1913311767578 93.71471415201825Q154.87537353515626 93.94799271647136 154.56253527832033 94.36727128092448Q154.2496970214844 94.7865498453776 153.97129779052736 95.35030979410809Q153.69289855957032 95.91406974283855 153.49057763671877 96.5695126139323L153.07129907226562 97.9444676920573H152.16863928222656L153.51695764160158 93.49343302408855Q153.49295764160158 93.49343302408855 153.4719576416016 93.49343302408855Q153.45095764160158 93.49343302408855 153.42695764160158 93.49343302408855Q153.2090372314453 93.49343302408855 153.00743774414065 93.57623276774089Q152.80583825683595 93.65903251139324 152.60471887207032 93.87299271647136Q152.4035994873047 94.08695292154948 152.1861591796875 94.48367435709636L151.95911682128906 94.38983353678387Q152.20703723144533 93.7379901529948 152.50283825683596 93.37186820475262Q152.79863928222656 93.00574625651042 153.1312811279297 92.85490543619792Q153.4639229736328 92.70406461588543 153.8032862548828 92.70406461588543Q153.92736840820314 92.70406461588543 154.04436968994142 92.71882456461589Q154.1613709716797 92.73358451334636 154.27837225341798 92.7578245646159Q154.39537353515627 92.78206461588543 154.51345568847657 92.81902482096355L153.82369189453127 95.07168204752605L153.7812117919922 95.0582391764323Q154.17529138183593 94.35959476725262 154.5051719970703 93.8993919474284Q154.83505261230468 93.43918912760418 155.12857379150392 93.17674753824872Q155.42209497070314 92.91430594889324 155.69281640625002 92.80618528238934Q155.9635378417969 92.69806461588543 156.23329907226562 92.69806461588543Q156.71473937988281 92.69806461588543 156.9170603027344 92.88034574381511Q157.11938122558595 93.0626268717448 157.11938122558595 93.36814933268231Q157.11938122558595 93.56038810221355 157.05698199462893 93.81202610270184Q156.99458276367187 94.06366410319012 156.8913837890625 94.39630082194012L156.76585620117189 94.81944840494792H156.70969445800782Q157.05001538085938 94.2199208170573 157.35877661132812 93.81107615152996Q157.66753784179687 93.40223148600262 157.9564993286133 93.15670902506511Q158.24546081542968 92.91118656412762 158.52110266113283 92.80186564127605Q158.79674450683595 92.69254471842449 159.06530676269531 92.69254471842449Q159.55826953125 92.69254471842449 159.75723101806642 92.88394651285807Q159.9561925048828 93.07534830729168 159.9561925048828 93.40391056315106Q159.9561925048828 93.60431107584637 159.89343255615233 93.86591184488933Q159.8306726074219 94.1275126139323 159.70371240234377 94.46495292154948Z"/></g>
</g></svg>