<svg xmlns="http://www.w3.org/2000/svg" width="223.98" height="71.03" viewBox="0 0 223.98 71.03">
<g transform="translate(18.00,35.51)">
<g transform="translate(-7.875,-26.550) scale(0.45000)" fill="none" stroke-linecap="round" stroke-linejoin="round">
<path d="M22 28 L50 90" stroke="#F3EEE5" stroke-width="9"/>
<path d="M50 90 L78 28" stroke="#F3EEE5" stroke-width="9"/>
<path d="M50 90 L93 37" stroke="#9DB8A1" stroke-width="6"/>
<path d="M50 90 L105 49" stroke="#9DB8A1" stroke-width="4.5" stroke-opacity="0.7"/>
</g>
<g fill="#F3EEE5" transform="translate(54.27,0)"><path d="M9.126 9.809999999999999 0.7559999999999999 -16.47H6.029999999999999L12.978 6.299999999999999L11.484 5.561999999999999H15.371999999999998L13.806 6.299999999999999L20.232 -16.47H25.343999999999998L17.549999999999997 9.809999999999999Z"/><path d="M38.556 10.493999999999998Q36.036 10.493999999999998 34.146 9.629999999999999Q32.256 8.765999999999998 31.014 7.316999999999998Q29.772 5.8679999999999986 29.141999999999996 4.067999999999999Q28.511999999999997 2.267999999999999 28.511999999999997 0.3780000000000001V-0.30600000000000094Q28.511999999999997 -2.25 29.141999999999996 -4.059Q29.772 -5.868 31.005 -7.299Q32.238 -8.73 34.083 -9.576Q35.928 -10.422 38.339999999999996 -10.422Q41.507999999999996 -10.422 43.641 -9.027000000000001Q45.774 -7.6320000000000014 46.863 -5.391000000000001Q47.952 -3.1500000000000004 47.952 -0.5579999999999998V1.2599999999999998H30.636V-1.8000000000000007H44.80199999999999L43.272 -0.30600000000000094Q43.272 -2.178000000000001 42.723 -3.5100000000000007Q42.174 -4.8420000000000005 41.084999999999994 -5.562Q39.995999999999995 -6.282 38.339999999999996 -6.282Q36.666 -6.282 35.513999999999996 -5.517Q34.361999999999995 -4.752000000000001 33.777 -3.3390000000000004Q33.192 -1.9260000000000002 33.192 0.05400000000000027Q33.192 1.9079999999999995 33.759 3.329999999999999Q34.326 4.751999999999999 35.513999999999996 5.552999999999999Q36.702 6.353999999999999 38.556 6.353999999999999Q40.373999999999995 6.353999999999999 41.525999999999996 5.616Q42.678 4.877999999999999 43.001999999999995 3.815999999999999H47.61Q47.196 5.813999999999999 45.962999999999994 7.325999999999999Q44.73 8.838 42.849 9.665999999999999Q40.967999999999996 10.493999999999998 38.556 10.493999999999998Z"/><path d="M52.27199999999999 17.514V13.229999999999999H55.94399999999999Q56.96999999999999 13.229999999999999 57.68099999999999 12.968999999999998Q58.39199999999999 12.707999999999998 58.850999999999985 12.104999999999999Q59.30999999999999 11.501999999999999 59.57999999999999 10.475999999999999L64.83599999999998 -9.738H69.624L63.80999999999999 11.556Q63.23399999999999 13.733999999999998 62.198999999999984 15.047999999999998Q61.16399999999999 16.362 59.52599999999999 16.938Q57.88799999999999 17.514 55.47599999999999 17.514ZM58.35599999999999 9.377999999999998V5.417999999999999H62.53199999999999V9.377999999999998ZM56.66399999999999 9.377999999999998 50.32799999999999 -9.738H55.36799999999999L61.37999999999999 9.377999999999998Z"/><path d="M74.05199999999999 9.809999999999999V-16.47H79.05599999999998V9.809999999999999ZM71.60399999999998 -12.725999999999999V-16.47H79.05599999999998V-12.725999999999999Z"/><path d="M85.49999999999999 9.809999999999999V-9.738H89.46V-1.4580000000000002H89.35199999999999Q89.35199999999999 -5.651999999999999 91.15199999999999 -7.820999999999999Q92.952 -9.989999999999998 96.44399999999999 -9.989999999999998H97.16399999999999V-5.634H95.79599999999999Q93.258 -5.634 91.881 -4.275Q90.50399999999999 -2.9160000000000004 90.50399999999999 -0.3600000000000012V9.809999999999999Z"/><path d="M102.16799999999999 9.809999999999999V-9.738H107.172V9.809999999999999ZM99.43199999999999 -5.994V-9.738H107.172V-5.994ZM103.99499999999999 -12.078Q102.52799999999999 -12.078 101.826 -12.843Q101.124 -13.608 101.124 -14.796Q101.124 -15.983999999999998 101.82814285714285 -16.749Q102.5322857142857 -17.514 103.98599999999999 -17.514Q105.46199999999999 -17.514 106.15499999999999 -16.749Q106.84799999999998 -15.983999999999998 106.84799999999998 -14.796Q106.84799999999998 -13.608 106.15499999999999 -12.843Q105.46199999999999 -12.078 103.99499999999999 -12.078Z"/><path d="M123.02999999999999 10.493999999999998Q120.45599999999999 10.493999999999998 118.476 9.665999999999999Q116.496 8.838 115.12799999999999 7.424999999999999Q113.75999999999999 6.011999999999999 113.05799999999999 4.211999999999999Q112.356 2.411999999999999 112.356 0.4499999999999993V-0.30600000000000094Q112.356 -2.3040000000000003 113.085 -4.131Q113.814 -5.958 115.19999999999999 -7.3709999999999996Q116.586 -8.783999999999999 118.566 -9.603Q120.54599999999999 -10.422 123.02999999999999 -10.422Q125.532 -10.422 127.50299999999999 -9.603Q129.474 -8.783999999999999 130.85999999999999 -7.3709999999999996Q132.24599999999998 -5.958 132.97499999999997 -4.131Q133.70399999999998 -2.3040000000000003 133.70399999999998 -0.30600000000000094V0.4499999999999993Q133.70399999999998 2.411999999999999 133.00199999999998 4.211999999999999Q132.29999999999998 6.011999999999999 130.932 7.424999999999999Q129.564 8.838 127.58399999999999 9.665999999999999Q125.60399999999998 10.493999999999998 123.02999999999999 10.493999999999998ZM123.02999999999999 6.209999999999999Q124.86599999999999 6.209999999999999 126.12599999999999 5.408999999999999Q127.386 4.607999999999999 128.043 3.212999999999999Q128.7 1.8179999999999996 128.7 0.07199999999999918Q128.7 -1.7279999999999998 128.02499999999998 -3.123Q127.35 -4.518000000000001 126.08099999999999 -5.328Q124.812 -6.138 123.02999999999999 -6.138Q121.26599999999999 -6.138 119.988 -5.328Q118.71 -4.518000000000001 118.035 -3.123Q117.35999999999999 -1.7279999999999998 117.35999999999999 0.07199999999999918Q117.35999999999999 1.8179999999999996 118.017 3.212999999999999Q118.67399999999999 4.607999999999999 119.94299999999998 5.408999999999999Q121.21199999999999 6.209999999999999 123.02999999999999 6.209999999999999Z"/></g>
</g></svg>